<mxfile host="app.diagrams.net" agent="Mozilla/5.0 (Windows NT 10.0; Win64; x64) AppleWebKit/537.36 (KHTML, like Gecko) Chrome/134.0.0.0 Safari/537.36 Edg/134.0.0.0" version="26.1.1">
  <diagram id="Ht1M8jgEwFfnCIfOTk4-" name="Page-1">
    <mxGraphModel dx="2350" dy="1287" grid="1" gridSize="10" guides="1" tooltips="1" connect="1" arrows="0" fold="1" page="1" pageScale="1" pageWidth="1169" pageHeight="827" math="0" shadow="0">
      <root>
        <mxCell id="0" />
        <mxCell id="1" parent="0" />
        <mxCell id="M5-uGFi3z-6Nw_OpLiqt-94" value="Public subnet" style="points=[[0,0],[0.25,0],[0.5,0],[0.75,0],[1,0],[1,0.25],[1,0.5],[1,0.75],[1,1],[0.75,1],[0.5,1],[0.25,1],[0,1],[0,0.75],[0,0.5],[0,0.25]];outlineConnect=0;gradientColor=none;html=1;whiteSpace=wrap;fontSize=12;fontStyle=0;container=1;pointerEvents=0;collapsible=0;recursiveResize=0;shape=mxgraph.aws4.group;grIcon=mxgraph.aws4.group_security_group;grStroke=0;strokeColor=#7AA116;fillColor=#F2F6E8;verticalAlign=top;align=left;spacingLeft=30;fontColor=#248814;dashed=0;" parent="1" vertex="1">
          <mxGeometry x="430" y="410" width="120" height="160" as="geometry" />
        </mxCell>
        <mxCell id="M5-uGFi3z-6Nw_OpLiqt-8" value="Availability Zone" style="fillColor=none;strokeColor=#147EBA;dashed=1;verticalAlign=top;fontStyle=0;fontColor=#147EBA;whiteSpace=wrap;html=1;movable=1;resizable=1;rotatable=1;deletable=1;editable=1;locked=0;connectable=1;" parent="M5-uGFi3z-6Nw_OpLiqt-94" vertex="1">
          <mxGeometry x="-10" y="-30" width="280" height="230" as="geometry" />
        </mxCell>
        <mxCell id="M5-uGFi3z-6Nw_OpLiqt-96" value="" style="sketch=0;outlineConnect=0;fontColor=#232F3E;gradientColor=none;fillColor=#8C4FFF;strokeColor=none;dashed=0;verticalLabelPosition=bottom;verticalAlign=top;align=center;html=1;fontSize=12;fontStyle=0;aspect=fixed;pointerEvents=1;shape=mxgraph.aws4.nat_gateway;" parent="M5-uGFi3z-6Nw_OpLiqt-94" vertex="1">
          <mxGeometry x="39.5" y="65.5" width="49" height="49" as="geometry" />
        </mxCell>
        <mxCell id="M5-uGFi3z-6Nw_OpLiqt-95" value="NAT Gateway" style="text;html=1;align=center;verticalAlign=middle;whiteSpace=wrap;rounded=0;" parent="M5-uGFi3z-6Nw_OpLiqt-94" vertex="1">
          <mxGeometry x="19" y="114.5" width="90" height="20" as="geometry" />
        </mxCell>
        <mxCell id="M5-uGFi3z-6Nw_OpLiqt-7" value="AWS Cloud" style="points=[[0,0],[0.25,0],[0.5,0],[0.75,0],[1,0],[1,0.25],[1,0.5],[1,0.75],[1,1],[0.75,1],[0.5,1],[0.25,1],[0,1],[0,0.75],[0,0.5],[0,0.25]];outlineConnect=0;gradientColor=none;html=1;whiteSpace=wrap;fontSize=12;fontStyle=0;container=1;pointerEvents=0;collapsible=0;recursiveResize=0;shape=mxgraph.aws4.group;grIcon=mxgraph.aws4.group_aws_cloud_alt;strokeColor=#232F3E;fillColor=none;verticalAlign=top;align=left;spacingLeft=30;fontColor=#232F3E;dashed=0;" parent="1" vertex="1">
          <mxGeometry x="80" y="150" width="850" height="620" as="geometry" />
        </mxCell>
        <mxCell id="M5-uGFi3z-6Nw_OpLiqt-25" value="AWS Account" style="points=[[0,0],[0.25,0],[0.5,0],[0.75,0],[1,0],[1,0.25],[1,0.5],[1,0.75],[1,1],[0.75,1],[0.5,1],[0.25,1],[0,1],[0,0.75],[0,0.5],[0,0.25]];outlineConnect=0;gradientColor=none;html=1;whiteSpace=wrap;fontSize=12;fontStyle=0;container=1;pointerEvents=0;collapsible=0;recursiveResize=0;shape=mxgraph.aws4.group;grIcon=mxgraph.aws4.group_account;strokeColor=#CD2264;fillColor=none;verticalAlign=top;align=left;spacingLeft=30;fontColor=#CD2264;dashed=0;" parent="M5-uGFi3z-6Nw_OpLiqt-7" vertex="1">
          <mxGeometry x="20" y="32" width="110" height="538" as="geometry" />
        </mxCell>
        <mxCell id="M5-uGFi3z-6Nw_OpLiqt-18" value="IAM" style="text;html=1;align=center;verticalAlign=middle;whiteSpace=wrap;rounded=0;" parent="M5-uGFi3z-6Nw_OpLiqt-25" vertex="1">
          <mxGeometry x="25.41" y="101" width="60" height="20" as="geometry" />
        </mxCell>
        <mxCell id="M5-uGFi3z-6Nw_OpLiqt-13" value="" style="sketch=0;outlineConnect=0;fontColor=#232F3E;gradientColor=none;fillColor=#DD344C;strokeColor=none;dashed=0;verticalLabelPosition=bottom;verticalAlign=top;align=center;html=1;fontSize=12;fontStyle=0;aspect=fixed;pointerEvents=1;shape=mxgraph.aws4.role;" parent="M5-uGFi3z-6Nw_OpLiqt-25" vertex="1">
          <mxGeometry x="26.43" y="179" width="54.96" height="31" as="geometry" />
        </mxCell>
        <mxCell id="M5-uGFi3z-6Nw_OpLiqt-20" value="IAM Role" style="text;html=1;align=center;verticalAlign=middle;whiteSpace=wrap;rounded=0;" parent="M5-uGFi3z-6Nw_OpLiqt-25" vertex="1">
          <mxGeometry x="26.25" y="212" width="60" height="20" as="geometry" />
        </mxCell>
        <mxCell id="M5-uGFi3z-6Nw_OpLiqt-22" value="IAM Policy" style="text;html=1;align=center;verticalAlign=middle;whiteSpace=wrap;rounded=0;" parent="M5-uGFi3z-6Nw_OpLiqt-25" vertex="1">
          <mxGeometry x="30.250000000000007" y="333" width="60" height="20" as="geometry" />
        </mxCell>
        <mxCell id="M5-uGFi3z-6Nw_OpLiqt-41" value="" style="sketch=0;outlineConnect=0;fontColor=#232F3E;gradientColor=none;fillColor=#7AA116;strokeColor=none;dashed=0;verticalLabelPosition=bottom;verticalAlign=top;align=center;html=1;fontSize=12;fontStyle=0;aspect=fixed;pointerEvents=1;shape=mxgraph.aws4.policy;" parent="M5-uGFi3z-6Nw_OpLiqt-25" vertex="1">
          <mxGeometry x="35.43000000000001" y="278" width="60.54" height="52" as="geometry" />
        </mxCell>
        <mxCell id="M5-uGFi3z-6Nw_OpLiqt-17" value="" style="sketch=0;points=[[0,0,0],[0.25,0,0],[0.5,0,0],[0.75,0,0],[1,0,0],[0,1,0],[0.25,1,0],[0.5,1,0],[0.75,1,0],[1,1,0],[0,0.25,0],[0,0.5,0],[0,0.75,0],[1,0.25,0],[1,0.5,0],[1,0.75,0]];outlineConnect=0;fontColor=#232F3E;fillColor=#DD344C;strokeColor=#ffffff;dashed=0;verticalLabelPosition=bottom;verticalAlign=top;align=center;html=1;fontSize=12;fontStyle=0;aspect=fixed;shape=mxgraph.aws4.resourceIcon;resIcon=mxgraph.aws4.identity_and_access_management;" parent="M5-uGFi3z-6Nw_OpLiqt-25" vertex="1">
          <mxGeometry x="30.25" y="48" width="52" height="52" as="geometry" />
        </mxCell>
        <mxCell id="M5-uGFi3z-6Nw_OpLiqt-6" value="Region" style="points=[[0,0],[0.25,0],[0.5,0],[0.75,0],[1,0],[1,0.25],[1,0.5],[1,0.75],[1,1],[0.75,1],[0.5,1],[0.25,1],[0,1],[0,0.75],[0,0.5],[0,0.25]];outlineConnect=0;gradientColor=none;html=1;whiteSpace=wrap;fontSize=12;fontStyle=0;container=1;pointerEvents=0;collapsible=0;recursiveResize=0;shape=mxgraph.aws4.group;grIcon=mxgraph.aws4.group_region;strokeColor=#00A4A6;fillColor=none;verticalAlign=top;align=left;spacingLeft=30;fontColor=#147EBA;dashed=1;movable=1;resizable=1;rotatable=1;deletable=1;editable=1;locked=0;connectable=1;" parent="M5-uGFi3z-6Nw_OpLiqt-7" vertex="1">
          <mxGeometry x="150" y="180" width="690" height="430" as="geometry" />
        </mxCell>
        <mxCell id="M5-uGFi3z-6Nw_OpLiqt-3" value="VPC" style="points=[[0,0],[0.25,0],[0.5,0],[0.75,0],[1,0],[1,0.25],[1,0.5],[1,0.75],[1,1],[0.75,1],[0.5,1],[0.25,1],[0,1],[0,0.75],[0,0.5],[0,0.25]];outlineConnect=0;gradientColor=none;html=1;whiteSpace=wrap;fontSize=12;fontStyle=0;container=1;pointerEvents=0;collapsible=0;recursiveResize=0;shape=mxgraph.aws4.group;grIcon=mxgraph.aws4.group_vpc2;strokeColor=#8C4FFF;fillColor=none;verticalAlign=top;align=left;spacingLeft=30;fontColor=#AAB7B8;dashed=0;movable=1;resizable=1;rotatable=1;deletable=1;editable=1;locked=0;connectable=1;" parent="M5-uGFi3z-6Nw_OpLiqt-6" vertex="1">
          <mxGeometry x="180" y="10" width="300" height="410" as="geometry" />
        </mxCell>
        <mxCell id="M5-uGFi3z-6Nw_OpLiqt-4" value="Private subnet" style="points=[[0,0],[0.25,0],[0.5,0],[0.75,0],[1,0],[1,0.25],[1,0.5],[1,0.75],[1,1],[0.75,1],[0.5,1],[0.25,1],[0,1],[0,0.75],[0,0.5],[0,0.25]];outlineConnect=0;gradientColor=none;html=1;whiteSpace=wrap;fontSize=12;fontStyle=0;container=1;pointerEvents=0;collapsible=0;recursiveResize=0;shape=mxgraph.aws4.group;grIcon=mxgraph.aws4.group_security_group;grStroke=0;strokeColor=#00A4A6;fillColor=#E6F6F7;verticalAlign=top;align=left;spacingLeft=30;fontColor=#147EBA;dashed=0;movable=1;resizable=1;rotatable=1;deletable=1;editable=1;locked=0;connectable=1;" parent="M5-uGFi3z-6Nw_OpLiqt-3" vertex="1">
          <mxGeometry x="156" y="69.5" width="122" height="162" as="geometry" />
        </mxCell>
        <mxCell id="M5-uGFi3z-6Nw_OpLiqt-24" value="Amazon&lt;div&gt;EC2&lt;/div&gt;" style="text;html=1;align=center;verticalAlign=middle;whiteSpace=wrap;rounded=0;" parent="M5-uGFi3z-6Nw_OpLiqt-4" vertex="1">
          <mxGeometry x="29" y="114.5" width="72" height="30.5" as="geometry" />
        </mxCell>
        <mxCell id="M5-uGFi3z-6Nw_OpLiqt-35" value="" style="sketch=0;points=[[0,0,0],[0.25,0,0],[0.5,0,0],[0.75,0,0],[1,0,0],[0,1,0],[0.25,1,0],[0.5,1,0],[0.75,1,0],[1,1,0],[0,0.25,0],[0,0.5,0],[0,0.75,0],[1,0.25,0],[1,0.5,0],[1,0.75,0]];points=[[0,0,0],[0.25,0,0],[0.5,0,0],[0.75,0,0],[1,0,0],[0,1,0],[0.25,1,0],[0.5,1,0],[0.75,1,0],[1,1,0],[0,0.25,0],[0,0.5,0],[0,0.75,0],[1,0.25,0],[1,0.5,0],[1,0.75,0]];outlineConnect=0;fontColor=#232F3E;fillColor=#E7157B;strokeColor=#ffffff;dashed=0;verticalLabelPosition=bottom;verticalAlign=top;align=center;html=1;fontSize=12;fontStyle=0;aspect=fixed;shape=mxgraph.aws4.resourceIcon;resIcon=mxgraph.aws4.systems_manager;" parent="M5-uGFi3z-6Nw_OpLiqt-6" vertex="1">
          <mxGeometry x="610.75" y="230" width="46.5" height="46.5" as="geometry" />
        </mxCell>
        <mxCell id="M5-uGFi3z-6Nw_OpLiqt-36" value="AWS&lt;div&gt;Session Manager&lt;/div&gt;" style="text;html=1;align=center;verticalAlign=middle;whiteSpace=wrap;rounded=0;" parent="M5-uGFi3z-6Nw_OpLiqt-6" vertex="1">
          <mxGeometry x="580" y="278" width="110" height="32" as="geometry" />
        </mxCell>
        <mxCell id="M5-uGFi3z-6Nw_OpLiqt-97" style="rounded=0;orthogonalLoop=1;jettySize=auto;html=1;endArrow=none;startFill=0;strokeWidth=3;strokeColor=light-dark(#8b50f8, #959595);" parent="M5-uGFi3z-6Nw_OpLiqt-6" source="M5-uGFi3z-6Nw_OpLiqt-96" edge="1">
          <mxGeometry relative="1" as="geometry">
            <mxPoint x="229.75" y="515" as="sourcePoint" />
            <mxPoint x="365" y="170" as="targetPoint" />
          </mxGeometry>
        </mxCell>
        <mxCell id="M5-uGFi3z-6Nw_OpLiqt-98" style="rounded=0;orthogonalLoop=1;jettySize=auto;html=1;exitX=1;exitY=0.5;exitDx=0;exitDy=0;exitPerimeter=0;endArrow=none;startFill=0;strokeWidth=3;strokeColor=light-dark(#8b50f8, #959595);" parent="M5-uGFi3z-6Nw_OpLiqt-6" target="M5-uGFi3z-6Nw_OpLiqt-96" edge="1">
          <mxGeometry relative="1" as="geometry">
            <mxPoint x="80.25" y="297.75" as="sourcePoint" />
          </mxGeometry>
        </mxCell>
        <mxCell id="M5-uGFi3z-6Nw_OpLiqt-99" value="Amazon&lt;div&gt;Transit Gateway&lt;/div&gt;" style="text;html=1;align=center;verticalAlign=middle;whiteSpace=wrap;rounded=0;" parent="M5-uGFi3z-6Nw_OpLiqt-6" vertex="1">
          <mxGeometry y="324.5" width="110" height="39" as="geometry" />
        </mxCell>
        <mxCell id="M5-uGFi3z-6Nw_OpLiqt-100" style="edgeStyle=orthogonalEdgeStyle;rounded=0;orthogonalLoop=1;jettySize=auto;html=1;endArrow=none;startFill=0;startArrow=none;strokeWidth=3;strokeColor=light-dark(#8b50f8, #959595);entryX=0.5;entryY=1;entryDx=0;entryDy=0;entryPerimeter=0;" parent="M5-uGFi3z-6Nw_OpLiqt-6" edge="1">
          <mxGeometry relative="1" as="geometry">
            <mxPoint x="55" y="330.5" as="sourcePoint" />
            <mxPoint x="55" y="323" as="targetPoint" />
          </mxGeometry>
        </mxCell>
        <mxCell id="M5-uGFi3z-6Nw_OpLiqt-101" value="" style="outlineConnect=0;dashed=0;verticalLabelPosition=bottom;verticalAlign=top;align=center;html=1;shape=mxgraph.aws3.internet_gateway;fillColor=#F58534;gradientColor=none;" parent="M5-uGFi3z-6Nw_OpLiqt-6" vertex="1">
          <mxGeometry x="30.5" y="270" width="49" height="53" as="geometry" />
        </mxCell>
        <mxCell id="M5-uGFi3z-6Nw_OpLiqt-84" value="異常検知" style="text;html=1;align=center;verticalAlign=middle;whiteSpace=wrap;rounded=1;fillColor=#FFFFFF;gradientColor=none;strokeColor=light-dark(#e42379, #295a0d);strokeWidth=3;fontColor=light-dark(#e42379, #295a0d);fontStyle=1;shadow=1;shadowBlur=0;" parent="M5-uGFi3z-6Nw_OpLiqt-6" vertex="1">
          <mxGeometry x="460.00000000000006" y="121" width="80" height="20" as="geometry" />
        </mxCell>
        <mxCell id="M5-uGFi3z-6Nw_OpLiqt-80" value="バックアップ" style="text;html=1;align=center;verticalAlign=middle;whiteSpace=wrap;rounded=1;fillColor=default;gradientColor=none;strokeColor=light-dark(#7ba132, #295a0d);strokeWidth=3;fontColor=light-dark(#7ba132, #295a0d);fontStyle=1;shadow=1;shadowBlur=0;" parent="M5-uGFi3z-6Nw_OpLiqt-6" vertex="1">
          <mxGeometry x="460" y="150" width="80" height="20" as="geometry" />
        </mxCell>
        <mxCell id="M5-uGFi3z-6Nw_OpLiqt-90" value="メンテナンス" style="text;html=1;align=center;verticalAlign=middle;whiteSpace=wrap;rounded=1;fillColor=#FFFFFF;gradientColor=none;strokeColor=light-dark(#FF8000,#295A0D);strokeWidth=3;fontColor=light-dark(#FF8000,#295A0D);fontStyle=1;shadow=1;shadowBlur=0;" parent="M5-uGFi3z-6Nw_OpLiqt-6" vertex="1">
          <mxGeometry x="504" y="213" width="80" height="20" as="geometry" />
        </mxCell>
        <mxCell id="M5-uGFi3z-6Nw_OpLiqt-104" value="" style="sketch=0;points=[[0,0,0],[0.25,0,0],[0.5,0,0],[0.75,0,0],[1,0,0],[0,1,0],[0.25,1,0],[0.5,1,0],[0.75,1,0],[1,1,0],[0,0.25,0],[0,0.5,0],[0,0.75,0],[1,0.25,0],[1,0.5,0],[1,0.75,0]];outlineConnect=0;fontColor=#232F3E;fillColor=#DD344C;strokeColor=#ffffff;dashed=0;verticalLabelPosition=bottom;verticalAlign=top;align=center;html=1;fontSize=12;fontStyle=0;aspect=fixed;shape=mxgraph.aws4.resourceIcon;resIcon=mxgraph.aws4.network_firewall;" parent="M5-uGFi3z-6Nw_OpLiqt-6" vertex="1">
          <mxGeometry x="40" y="88" width="53" height="53" as="geometry" />
        </mxCell>
        <mxCell id="M5-uGFi3z-6Nw_OpLiqt-34" value="Amazon&lt;div&gt;S3&lt;/div&gt;" style="text;html=1;align=center;verticalAlign=middle;whiteSpace=wrap;rounded=0;" parent="M5-uGFi3z-6Nw_OpLiqt-7" vertex="1">
          <mxGeometry x="740" y="359" width="90" height="32" as="geometry" />
        </mxCell>
        <mxCell id="M5-uGFi3z-6Nw_OpLiqt-33" value="" style="sketch=0;points=[[0,0,0],[0.25,0,0],[0.5,0,0],[0.75,0,0],[1,0,0],[0,1,0],[0.25,1,0],[0.5,1,0],[0.75,1,0],[1,1,0],[0,0.25,0],[0,0.5,0],[0,0.75,0],[1,0.25,0],[1,0.5,0],[1,0.75,0]];outlineConnect=0;fontColor=#232F3E;fillColor=#7AA116;strokeColor=#ffffff;dashed=0;verticalLabelPosition=bottom;verticalAlign=top;align=center;html=1;fontSize=12;fontStyle=0;aspect=fixed;shape=mxgraph.aws4.resourceIcon;resIcon=mxgraph.aws4.s3;" parent="M5-uGFi3z-6Nw_OpLiqt-7" vertex="1">
          <mxGeometry x="761" y="308" width="50" height="50" as="geometry" />
        </mxCell>
        <mxCell id="M5-uGFi3z-6Nw_OpLiqt-61" value="管理" style="points=[[0,0],[0.25,0],[0.5,0],[0.75,0],[1,0],[1,0.25],[1,0.5],[1,0.75],[1,1],[0.75,1],[0.5,1],[0.25,1],[0,1],[0,0.75],[0,0.5],[0,0.25]];outlineConnect=0;gradientColor=none;html=1;whiteSpace=wrap;fontSize=12;fontStyle=0;container=1;pointerEvents=0;collapsible=0;recursiveResize=0;shape=mxgraph.aws4.group;grIcon=mxgraph.aws4.group_account;strokeColor=#CD2264;fillColor=none;verticalAlign=top;align=left;spacingLeft=30;fontColor=#CD2264;dashed=0;" parent="M5-uGFi3z-6Nw_OpLiqt-7" vertex="1">
          <mxGeometry x="150" y="33" width="690" height="137" as="geometry" />
        </mxCell>
        <mxCell id="M5-uGFi3z-6Nw_OpLiqt-43" value="" style="sketch=0;points=[[0,0,0],[0.25,0,0],[0.5,0,0],[0.75,0,0],[1,0,0],[0,1,0],[0.25,1,0],[0.5,1,0],[0.75,1,0],[1,1,0],[0,0.25,0],[0,0.5,0],[0,0.75,0],[1,0.25,0],[1,0.5,0],[1,0.75,0]];points=[[0,0,0],[0.25,0,0],[0.5,0,0],[0.75,0,0],[1,0,0],[0,1,0],[0.25,1,0],[0.5,1,0],[0.75,1,0],[1,1,0],[0,0.25,0],[0,0.5,0],[0,0.75,0],[1,0.25,0],[1,0.5,0],[1,0.75,0]];outlineConnect=0;fontColor=#232F3E;fillColor=#E7157B;strokeColor=#ffffff;dashed=0;verticalLabelPosition=bottom;verticalAlign=top;align=center;html=1;fontSize=12;fontStyle=0;aspect=fixed;shape=mxgraph.aws4.resourceIcon;resIcon=mxgraph.aws4.cloudtrail;" parent="M5-uGFi3z-6Nw_OpLiqt-61" vertex="1">
          <mxGeometry x="28.75" y="47" width="52.5" height="52.5" as="geometry" />
        </mxCell>
        <mxCell id="M5-uGFi3z-6Nw_OpLiqt-44" value="AWS&lt;div&gt;CloudTrail&lt;/div&gt;" style="text;html=1;align=center;verticalAlign=middle;whiteSpace=wrap;rounded=0;" parent="M5-uGFi3z-6Nw_OpLiqt-61" vertex="1">
          <mxGeometry x="10" y="101.5" width="90" height="30.5" as="geometry" />
        </mxCell>
        <mxCell id="M5-uGFi3z-6Nw_OpLiqt-45" value="" style="sketch=0;points=[[0,0,0],[0.25,0,0],[0.5,0,0],[0.75,0,0],[1,0,0],[0,1,0],[0.25,1,0],[0.5,1,0],[0.75,1,0],[1,1,0],[0,0.25,0],[0,0.5,0],[0,0.75,0],[1,0.25,0],[1,0.5,0],[1,0.75,0]];outlineConnect=0;fontColor=#232F3E;fillColor=#E7157B;strokeColor=#ffffff;dashed=0;verticalLabelPosition=bottom;verticalAlign=top;align=center;html=1;fontSize=12;fontStyle=0;aspect=fixed;shape=mxgraph.aws4.resourceIcon;resIcon=mxgraph.aws4.eventbridge;" parent="M5-uGFi3z-6Nw_OpLiqt-61" vertex="1">
          <mxGeometry x="269.25" y="47" width="51.5" height="51.5" as="geometry" />
        </mxCell>
        <mxCell id="M5-uGFi3z-6Nw_OpLiqt-46" value="&lt;div&gt;Amazon&lt;/div&gt;EventBridge" style="text;html=1;align=center;verticalAlign=middle;whiteSpace=wrap;rounded=0;" parent="M5-uGFi3z-6Nw_OpLiqt-61" vertex="1">
          <mxGeometry x="250" y="100.5" width="90" height="31.5" as="geometry" />
        </mxCell>
        <mxCell id="M5-uGFi3z-6Nw_OpLiqt-53" value="" style="sketch=0;outlineConnect=0;fontColor=#232F3E;gradientColor=none;fillColor=#E7157B;strokeColor=none;dashed=0;verticalLabelPosition=bottom;verticalAlign=top;align=center;html=1;fontSize=12;fontStyle=0;aspect=fixed;pointerEvents=1;shape=mxgraph.aws4.stack;" parent="M5-uGFi3z-6Nw_OpLiqt-61" vertex="1">
          <mxGeometry x="448.63" y="47" width="53.37" height="52" as="geometry" />
        </mxCell>
        <mxCell id="M5-uGFi3z-6Nw_OpLiqt-54" value="&lt;div&gt;Stack&lt;/div&gt;" style="text;html=1;align=center;verticalAlign=middle;whiteSpace=wrap;rounded=0;" parent="M5-uGFi3z-6Nw_OpLiqt-61" vertex="1">
          <mxGeometry x="432" y="98.5" width="90" height="18.5" as="geometry" />
        </mxCell>
        <mxCell id="M5-uGFi3z-6Nw_OpLiqt-51" value="" style="sketch=0;points=[[0,0,0],[0.25,0,0],[0.5,0,0],[0.75,0,0],[1,0,0],[0,1,0],[0.25,1,0],[0.5,1,0],[0.75,1,0],[1,1,0],[0,0.25,0],[0,0.5,0],[0,0.75,0],[1,0.25,0],[1,0.5,0],[1,0.75,0]];points=[[0,0,0],[0.25,0,0],[0.5,0,0],[0.75,0,0],[1,0,0],[0,1,0],[0.25,1,0],[0.5,1,0],[0.75,1,0],[1,1,0],[0,0.25,0],[0,0.5,0],[0,0.75,0],[1,0.25,0],[1,0.5,0],[1,0.75,0]];outlineConnect=0;fontColor=#232F3E;fillColor=#E7157B;strokeColor=#ffffff;dashed=0;verticalLabelPosition=bottom;verticalAlign=top;align=center;html=1;fontSize=12;fontStyle=0;aspect=fixed;shape=mxgraph.aws4.resourceIcon;resIcon=mxgraph.aws4.cloudformation;" parent="M5-uGFi3z-6Nw_OpLiqt-61" vertex="1">
          <mxGeometry x="360" y="47" width="51" height="51" as="geometry" />
        </mxCell>
        <mxCell id="M5-uGFi3z-6Nw_OpLiqt-52" value="&lt;div&gt;AWS&lt;/div&gt;&lt;div&gt;CloudFormation&lt;/div&gt;" style="text;html=1;align=center;verticalAlign=middle;whiteSpace=wrap;rounded=0;" parent="M5-uGFi3z-6Nw_OpLiqt-61" vertex="1">
          <mxGeometry x="340" y="100.5" width="90" height="31.5" as="geometry" />
        </mxCell>
        <mxCell id="M5-uGFi3z-6Nw_OpLiqt-47" value="" style="sketch=0;points=[[0,0,0],[0.25,0,0],[0.5,0,0],[0.75,0,0],[1,0,0],[0,1,0],[0.25,1,0],[0.5,1,0],[0.75,1,0],[1,1,0],[0,0.25,0],[0,0.5,0],[0,0.75,0],[1,0.25,0],[1,0.5,0],[1,0.75,0]];outlineConnect=0;fontColor=#232F3E;fillColor=#DD344C;strokeColor=#ffffff;dashed=0;verticalLabelPosition=bottom;verticalAlign=top;align=center;html=1;fontSize=12;fontStyle=0;aspect=fixed;shape=mxgraph.aws4.resourceIcon;resIcon=mxgraph.aws4.guardduty;" parent="M5-uGFi3z-6Nw_OpLiqt-61" vertex="1">
          <mxGeometry x="110" y="47" width="52" height="52" as="geometry" />
        </mxCell>
        <mxCell id="M5-uGFi3z-6Nw_OpLiqt-48" value="&lt;div&gt;Amazon&lt;/div&gt;GuardDuty" style="text;html=1;align=center;verticalAlign=middle;whiteSpace=wrap;rounded=0;" parent="M5-uGFi3z-6Nw_OpLiqt-61" vertex="1">
          <mxGeometry x="90" y="100.5" width="90" height="31.5" as="geometry" />
        </mxCell>
        <mxCell id="M5-uGFi3z-6Nw_OpLiqt-49" value="" style="sketch=0;points=[[0,0,0],[0.25,0,0],[0.5,0,0],[0.75,0,0],[1,0,0],[0,1,0],[0.25,1,0],[0.5,1,0],[0.75,1,0],[1,1,0],[0,0.25,0],[0,0.5,0],[0,0.75,0],[1,0.25,0],[1,0.5,0],[1,0.75,0]];outlineConnect=0;fontColor=#232F3E;fillColor=#DD344C;strokeColor=#ffffff;dashed=0;verticalLabelPosition=bottom;verticalAlign=top;align=center;html=1;fontSize=12;fontStyle=0;aspect=fixed;shape=mxgraph.aws4.resourceIcon;resIcon=mxgraph.aws4.security_hub;" parent="M5-uGFi3z-6Nw_OpLiqt-61" vertex="1">
          <mxGeometry x="190" y="47" width="51" height="51" as="geometry" />
        </mxCell>
        <mxCell id="M5-uGFi3z-6Nw_OpLiqt-50" value="&lt;div&gt;AWS&lt;/div&gt;&lt;div&gt;Security Hub&lt;/div&gt;" style="text;html=1;align=center;verticalAlign=middle;whiteSpace=wrap;rounded=0;" parent="M5-uGFi3z-6Nw_OpLiqt-61" vertex="1">
          <mxGeometry x="170" y="100.5" width="90" height="31.5" as="geometry" />
        </mxCell>
        <mxCell id="M5-uGFi3z-6Nw_OpLiqt-58" value="" style="sketch=0;points=[[0,0,0],[0.25,0,0],[0.5,0,0],[0.75,0,0],[1,0,0],[0,1,0],[0.25,1,0],[0.5,1,0],[0.75,1,0],[1,1,0],[0,0.25,0],[0,0.5,0],[0,0.75,0],[1,0.25,0],[1,0.5,0],[1,0.75,0]];points=[[0,0,0],[0.25,0,0],[0.5,0,0],[0.75,0,0],[1,0,0],[0,1,0],[0.25,1,0],[0.5,1,0],[0.75,1,0],[1,1,0],[0,0.25,0],[0,0.5,0],[0,0.75,0],[1,0.25,0],[1,0.5,0],[1,0.75,0]];outlineConnect=0;fontColor=#232F3E;fillColor=#E7157B;strokeColor=#ffffff;dashed=0;verticalLabelPosition=bottom;verticalAlign=top;align=center;html=1;fontSize=12;fontStyle=0;aspect=fixed;shape=mxgraph.aws4.resourceIcon;resIcon=mxgraph.aws4.config;" parent="M5-uGFi3z-6Nw_OpLiqt-61" vertex="1">
          <mxGeometry x="530.5" y="47" width="49" height="49" as="geometry" />
        </mxCell>
        <mxCell id="M5-uGFi3z-6Nw_OpLiqt-59" value="&lt;div&gt;AWS&lt;/div&gt;&lt;div&gt;ConfigRule&lt;/div&gt;" style="text;html=1;align=center;verticalAlign=middle;whiteSpace=wrap;rounded=0;" parent="M5-uGFi3z-6Nw_OpLiqt-61" vertex="1">
          <mxGeometry x="510" y="98.5" width="90" height="31.5" as="geometry" />
        </mxCell>
        <mxCell id="M5-uGFi3z-6Nw_OpLiqt-56" value="z" style="sketch=0;points=[[0,0,0],[0.25,0,0],[0.5,0,0],[0.75,0,0],[1,0,0],[0,1,0],[0.25,1,0],[0.5,1,0],[0.75,1,0],[1,1,0],[0,0.25,0],[0,0.5,0],[0,0.75,0],[1,0.25,0],[1,0.5,0],[1,0.75,0]];outlineConnect=0;fontColor=#232F3E;fillColor=#ED7100;strokeColor=#ffffff;dashed=0;verticalLabelPosition=bottom;verticalAlign=top;align=center;html=1;fontSize=12;fontStyle=0;aspect=fixed;shape=mxgraph.aws4.resourceIcon;resIcon=mxgraph.aws4.lambda;" parent="M5-uGFi3z-6Nw_OpLiqt-61" vertex="1">
          <mxGeometry x="608.75" y="47" width="50" height="50" as="geometry" />
        </mxCell>
        <mxCell id="M5-uGFi3z-6Nw_OpLiqt-57" value="&lt;div&gt;AWS&lt;/div&gt;&lt;div&gt;Lambda&lt;/div&gt;" style="text;html=1;align=center;verticalAlign=middle;whiteSpace=wrap;rounded=0;" parent="M5-uGFi3z-6Nw_OpLiqt-61" vertex="1">
          <mxGeometry x="590" y="98.5" width="90" height="31.5" as="geometry" />
        </mxCell>
        <mxCell id="M5-uGFi3z-6Nw_OpLiqt-27" value="" style="sketch=0;points=[[0,0,0],[0.25,0,0],[0.5,0,0],[0.75,0,0],[1,0,0],[0,1,0],[0.25,1,0],[0.5,1,0],[0.75,1,0],[1,1,0],[0,0.25,0],[0,0.5,0],[0,0.75,0],[1,0.25,0],[1,0.5,0],[1,0.75,0]];points=[[0,0,0],[0.25,0,0],[0.5,0,0],[0.75,0,0],[1,0,0],[0,1,0],[0.25,1,0],[0.5,1,0],[0.75,1,0],[1,1,0],[0,0.25,0],[0,0.5,0],[0,0.75,0],[1,0.25,0],[1,0.5,0],[1,0.75,0]];outlineConnect=0;fontColor=#232F3E;fillColor=#E7157B;strokeColor=#ffffff;dashed=0;verticalLabelPosition=bottom;verticalAlign=top;align=center;html=1;fontSize=12;fontStyle=0;aspect=fixed;shape=mxgraph.aws4.resourceIcon;resIcon=mxgraph.aws4.cloudwatch_2;" parent="M5-uGFi3z-6Nw_OpLiqt-7" vertex="1">
          <mxGeometry x="680.25" y="210" width="52" height="52" as="geometry" />
        </mxCell>
        <mxCell id="M5-uGFi3z-6Nw_OpLiqt-28" value="AWS&lt;div&gt;CloudWatch&lt;/div&gt;" style="text;html=1;align=center;verticalAlign=middle;whiteSpace=wrap;rounded=0;" parent="M5-uGFi3z-6Nw_OpLiqt-7" vertex="1">
          <mxGeometry x="661.25" y="265" width="90" height="28" as="geometry" />
        </mxCell>
        <mxCell id="M5-uGFi3z-6Nw_OpLiqt-29" value="" style="sketch=0;points=[[0,0,0],[0.25,0,0],[0.5,0,0],[0.75,0,0],[1,0,0],[0,1,0],[0.25,1,0],[0.5,1,0],[0.75,1,0],[1,1,0],[0,0.25,0],[0,0.5,0],[0,0.75,0],[1,0.25,0],[1,0.5,0],[1,0.75,0]];outlineConnect=0;fontColor=#232F3E;fillColor=#E7157B;strokeColor=#ffffff;dashed=0;verticalLabelPosition=bottom;verticalAlign=top;align=center;html=1;fontSize=12;fontStyle=0;aspect=fixed;shape=mxgraph.aws4.resourceIcon;resIcon=mxgraph.aws4.sns;" parent="M5-uGFi3z-6Nw_OpLiqt-7" vertex="1">
          <mxGeometry x="760.25" y="211" width="50" height="50" as="geometry" />
        </mxCell>
        <mxCell id="M5-uGFi3z-6Nw_OpLiqt-30" value="Amazon&lt;div&gt;SNS&lt;/div&gt;" style="text;html=1;align=center;verticalAlign=middle;whiteSpace=wrap;rounded=0;" parent="M5-uGFi3z-6Nw_OpLiqt-7" vertex="1">
          <mxGeometry x="761.25" y="263" width="49" height="27" as="geometry" />
        </mxCell>
        <mxCell id="M5-uGFi3z-6Nw_OpLiqt-72" style="rounded=0;orthogonalLoop=1;jettySize=auto;html=1;endArrow=none;startFill=0;strokeWidth=3;strokeColor=light-dark(#e42379, #00a200);exitX=1;exitY=0.5;exitDx=0;exitDy=0;exitPerimeter=0;entryX=0;entryY=0.5;entryDx=0;entryDy=0;entryPerimeter=0;" parent="M5-uGFi3z-6Nw_OpLiqt-7" source="M5-uGFi3z-6Nw_OpLiqt-27" target="M5-uGFi3z-6Nw_OpLiqt-29" edge="1">
          <mxGeometry relative="1" as="geometry">
            <mxPoint x="670" y="327" as="sourcePoint" />
            <mxPoint x="776" y="234" as="targetPoint" />
          </mxGeometry>
        </mxCell>
        <mxCell id="M5-uGFi3z-6Nw_OpLiqt-73" style="rounded=0;orthogonalLoop=1;jettySize=auto;html=1;endArrow=block;startFill=0;strokeWidth=3;strokeColor=light-dark(#e42379, #00a200);exitX=1;exitY=0.5;exitDx=0;exitDy=0;exitPerimeter=0;endFill=1;" parent="M5-uGFi3z-6Nw_OpLiqt-7" edge="1">
          <mxGeometry relative="1" as="geometry">
            <mxPoint x="809.75" y="236" as="sourcePoint" />
            <mxPoint x="886" y="237" as="targetPoint" />
          </mxGeometry>
        </mxCell>
        <mxCell id="M5-uGFi3z-6Nw_OpLiqt-70" style="rounded=0;orthogonalLoop=1;jettySize=auto;html=1;endArrow=block;startFill=0;strokeWidth=3;strokeColor=light-dark(#7ba132, #00a200);entryX=0;entryY=0.5;entryDx=0;entryDy=0;entryPerimeter=0;endFill=1;" parent="M5-uGFi3z-6Nw_OpLiqt-7" source="M5-uGFi3z-6Nw_OpLiqt-80" target="M5-uGFi3z-6Nw_OpLiqt-33" edge="1">
          <mxGeometry relative="1" as="geometry">
            <mxPoint x="579.96" y="333.5" as="sourcePoint" />
            <mxPoint x="635.96" y="334.5" as="targetPoint" />
          </mxGeometry>
        </mxCell>
        <mxCell id="M5-uGFi3z-6Nw_OpLiqt-15" value="" style="sketch=0;outlineConnect=0;fontColor=#232F3E;gradientColor=none;fillColor=#232F3D;strokeColor=none;dashed=0;verticalLabelPosition=bottom;verticalAlign=top;align=center;html=1;fontSize=12;fontStyle=0;aspect=fixed;pointerEvents=1;shape=mxgraph.aws4.users;" parent="1" vertex="1">
          <mxGeometry x="262" y="772" width="46" height="46" as="geometry" />
        </mxCell>
        <mxCell id="M5-uGFi3z-6Nw_OpLiqt-1" value="" style="sketch=0;outlineConnect=0;fontColor=#232F3E;gradientColor=none;fillColor=#ED7100;strokeColor=none;dashed=0;verticalLabelPosition=bottom;verticalAlign=top;align=center;html=1;fontSize=12;fontStyle=0;aspect=fixed;pointerEvents=1;shape=mxgraph.aws4.instance2;" parent="1" vertex="1">
          <mxGeometry x="607.0006666666666" y="477" width="48" height="48" as="geometry" />
        </mxCell>
        <mxCell id="M5-uGFi3z-6Nw_OpLiqt-2" value="Security group" style="fillColor=none;strokeColor=#DD3522;verticalAlign=top;fontStyle=0;fontColor=#DD3522;whiteSpace=wrap;html=1;" parent="1" vertex="1">
          <mxGeometry x="584" y="451" width="94" height="112.5" as="geometry" />
        </mxCell>
        <mxCell id="M5-uGFi3z-6Nw_OpLiqt-37" value="" style="sketch=0;points=[[0,0,0],[0.25,0,0],[0.5,0,0],[0.75,0,0],[1,0,0],[0,1,0],[0.25,1,0],[0.5,1,0],[0.75,1,0],[1,1,0],[0,0.25,0],[0,0.5,0],[0,0.75,0],[1,0.25,0],[1,0.5,0],[1,0.75,0]];outlineConnect=0;fontColor=#232F3E;fillColor=#8C4FFF;strokeColor=#ffffff;dashed=0;verticalLabelPosition=bottom;verticalAlign=top;align=center;html=1;fontSize=12;fontStyle=0;aspect=fixed;shape=mxgraph.aws4.resourceIcon;resIcon=mxgraph.aws4.direct_connect;" parent="1" vertex="1">
          <mxGeometry x="80" y="40" width="54" height="54" as="geometry" />
        </mxCell>
        <mxCell id="M5-uGFi3z-6Nw_OpLiqt-40" value="Direct Connect" style="text;html=1;align=center;verticalAlign=middle;whiteSpace=wrap;rounded=0;" parent="1" vertex="1">
          <mxGeometry x="50" y="100" width="110" height="20" as="geometry" />
        </mxCell>
        <mxCell id="M5-uGFi3z-6Nw_OpLiqt-65" style="rounded=0;orthogonalLoop=1;jettySize=auto;html=1;endArrow=none;startFill=0;startArrow=none;strokeWidth=3;strokeColor=light-dark(#8b50f8, #959595);" parent="1" edge="1">
          <mxGeometry relative="1" as="geometry">
            <mxPoint x="285" y="690" as="sourcePoint" />
            <mxPoint x="285" y="765" as="targetPoint" />
          </mxGeometry>
        </mxCell>
        <mxCell id="M5-uGFi3z-6Nw_OpLiqt-74" value="インシデント&lt;div&gt;通知&lt;/div&gt;" style="text;html=1;align=center;verticalAlign=middle;whiteSpace=wrap;rounded=0;" parent="1" vertex="1">
          <mxGeometry x="954" y="414" width="80" height="30" as="geometry" />
        </mxCell>
        <mxCell id="M5-uGFi3z-6Nw_OpLiqt-76" value="利用者" style="text;html=1;align=center;verticalAlign=middle;whiteSpace=wrap;rounded=0;" parent="1" vertex="1">
          <mxGeometry x="245" y="818" width="80" height="30" as="geometry" />
        </mxCell>
        <mxCell id="M5-uGFi3z-6Nw_OpLiqt-78" value="" style="shape=mxgraph.signs.tech.mail;html=1;pointerEvents=1;fillColor=#666666;strokeColor=none;verticalLabelPosition=bottom;verticalAlign=top;align=center;" parent="1" vertex="1">
          <mxGeometry x="967.6" y="370" width="52.8" height="40" as="geometry" />
        </mxCell>
        <mxCell id="M5-uGFi3z-6Nw_OpLiqt-71" style="rounded=0;orthogonalLoop=1;jettySize=auto;html=1;endArrow=none;startFill=0;strokeWidth=3;strokeColor=light-dark(#e42379, #00a200);" parent="1" source="M5-uGFi3z-6Nw_OpLiqt-84" edge="1">
          <mxGeometry relative="1" as="geometry">
            <mxPoint x="661" y="477" as="sourcePoint" />
            <mxPoint x="767" y="384" as="targetPoint" />
          </mxGeometry>
        </mxCell>
        <mxCell id="M5-uGFi3z-6Nw_OpLiqt-85" value="" style="rounded=0;orthogonalLoop=1;jettySize=auto;html=1;endArrow=none;startFill=0;strokeWidth=3;strokeColor=light-dark(#e42379, #00a200);" parent="1" edge="1">
          <mxGeometry relative="1" as="geometry">
            <mxPoint x="643" y="495" as="sourcePoint" />
            <mxPoint x="696" y="481.2753623188405" as="targetPoint" />
          </mxGeometry>
        </mxCell>
        <mxCell id="M5-uGFi3z-6Nw_OpLiqt-88" style="rounded=0;orthogonalLoop=1;jettySize=auto;html=1;endArrow=none;startFill=0;strokeWidth=3;strokeColor=#FF8000;" parent="1" edge="1">
          <mxGeometry relative="1" as="geometry">
            <mxPoint x="839" y="583" as="sourcePoint" />
            <mxPoint x="643" y="498" as="targetPoint" />
            <Array as="points" />
          </mxGeometry>
        </mxCell>
        <mxCell id="M5-uGFi3z-6Nw_OpLiqt-92" value="企業情報&lt;div&gt;照会システム&lt;/div&gt;" style="text;html=1;align=center;verticalAlign=middle;whiteSpace=wrap;rounded=1;fillColor=default;gradientColor=none;strokeColor=light-dark(#666666,#295A0D);strokeWidth=3;fontColor=light-dark(#666666,#295A0D);fontStyle=1;shadow=1;shadowBlur=0;" parent="1" vertex="1">
          <mxGeometry x="593" y="557" width="80" height="35" as="geometry" />
        </mxCell>
        <mxCell id="M5-uGFi3z-6Nw_OpLiqt-81" value="" style="rounded=0;orthogonalLoop=1;jettySize=auto;html=1;endArrow=none;startFill=0;strokeWidth=3;strokeColor=light-dark(#7ba132, #00a200);" parent="1" edge="1">
          <mxGeometry relative="1" as="geometry">
            <mxPoint x="990" y="480" as="sourcePoint" />
            <mxPoint x="1161.2396212121212" y="477" as="targetPoint" />
          </mxGeometry>
        </mxCell>
        <mxCell id="M5-uGFi3z-6Nw_OpLiqt-105" value="名称未設定レイヤ" parent="0" visible="0" />
        <mxCell id="M5-uGFi3z-6Nw_OpLiqt-106" value="Public subnet" style="points=[[0,0],[0.25,0],[0.5,0],[0.75,0],[1,0],[1,0.25],[1,0.5],[1,0.75],[1,1],[0.75,1],[0.5,1],[0.25,1],[0,1],[0,0.75],[0,0.5],[0,0.25]];outlineConnect=0;gradientColor=none;html=1;whiteSpace=wrap;fontSize=12;fontStyle=0;container=1;pointerEvents=0;collapsible=0;recursiveResize=0;shape=mxgraph.aws4.group;grIcon=mxgraph.aws4.group_security_group;grStroke=0;strokeColor=#7AA116;fillColor=#F2F6E8;verticalAlign=top;align=left;spacingLeft=30;fontColor=#248814;dashed=0;" parent="M5-uGFi3z-6Nw_OpLiqt-105" vertex="1">
          <mxGeometry x="430" y="410" width="120" height="160" as="geometry" />
        </mxCell>
        <mxCell id="M5-uGFi3z-6Nw_OpLiqt-107" value="Availability Zone" style="fillColor=none;strokeColor=#147EBA;dashed=1;verticalAlign=top;fontStyle=0;fontColor=#147EBA;whiteSpace=wrap;html=1;movable=1;resizable=1;rotatable=1;deletable=1;editable=1;locked=0;connectable=1;" parent="M5-uGFi3z-6Nw_OpLiqt-106" vertex="1">
          <mxGeometry x="-10" y="-30" width="280" height="230" as="geometry" />
        </mxCell>
        <mxCell id="M5-uGFi3z-6Nw_OpLiqt-108" value="" style="sketch=0;outlineConnect=0;fontColor=#232F3E;gradientColor=none;fillColor=#8C4FFF;strokeColor=none;dashed=0;verticalLabelPosition=bottom;verticalAlign=top;align=center;html=1;fontSize=12;fontStyle=0;aspect=fixed;pointerEvents=1;shape=mxgraph.aws4.nat_gateway;" parent="M5-uGFi3z-6Nw_OpLiqt-106" vertex="1">
          <mxGeometry x="39.5" y="65.5" width="49" height="49" as="geometry" />
        </mxCell>
        <mxCell id="M5-uGFi3z-6Nw_OpLiqt-109" value="NAT Gateway" style="text;html=1;align=center;verticalAlign=middle;whiteSpace=wrap;rounded=0;" parent="M5-uGFi3z-6Nw_OpLiqt-106" vertex="1">
          <mxGeometry x="19" y="114.5" width="90" height="20" as="geometry" />
        </mxCell>
        <mxCell id="M5-uGFi3z-6Nw_OpLiqt-110" value="AWS Cloud" style="points=[[0,0],[0.25,0],[0.5,0],[0.75,0],[1,0],[1,0.25],[1,0.5],[1,0.75],[1,1],[0.75,1],[0.5,1],[0.25,1],[0,1],[0,0.75],[0,0.5],[0,0.25]];outlineConnect=0;gradientColor=none;html=1;whiteSpace=wrap;fontSize=12;fontStyle=0;container=1;pointerEvents=0;collapsible=0;recursiveResize=0;shape=mxgraph.aws4.group;grIcon=mxgraph.aws4.group_aws_cloud_alt;strokeColor=#232F3E;fillColor=none;verticalAlign=top;align=left;spacingLeft=30;fontColor=#232F3E;dashed=0;" parent="M5-uGFi3z-6Nw_OpLiqt-105" vertex="1">
          <mxGeometry x="80" y="150" width="850" height="620" as="geometry" />
        </mxCell>
        <mxCell id="M5-uGFi3z-6Nw_OpLiqt-111" value="AWS Account" style="points=[[0,0],[0.25,0],[0.5,0],[0.75,0],[1,0],[1,0.25],[1,0.5],[1,0.75],[1,1],[0.75,1],[0.5,1],[0.25,1],[0,1],[0,0.75],[0,0.5],[0,0.25]];outlineConnect=0;gradientColor=none;html=1;whiteSpace=wrap;fontSize=12;fontStyle=0;container=1;pointerEvents=0;collapsible=0;recursiveResize=0;shape=mxgraph.aws4.group;grIcon=mxgraph.aws4.group_account;strokeColor=#CD2264;fillColor=none;verticalAlign=top;align=left;spacingLeft=30;fontColor=#CD2264;dashed=0;" parent="M5-uGFi3z-6Nw_OpLiqt-110" vertex="1">
          <mxGeometry x="20" y="32" width="110" height="538" as="geometry" />
        </mxCell>
        <mxCell id="M5-uGFi3z-6Nw_OpLiqt-112" value="IAM" style="text;html=1;align=center;verticalAlign=middle;whiteSpace=wrap;rounded=0;" parent="M5-uGFi3z-6Nw_OpLiqt-111" vertex="1">
          <mxGeometry x="25.41" y="101" width="60" height="20" as="geometry" />
        </mxCell>
        <mxCell id="M5-uGFi3z-6Nw_OpLiqt-113" value="" style="sketch=0;outlineConnect=0;fontColor=#232F3E;gradientColor=none;fillColor=#DD344C;strokeColor=none;dashed=0;verticalLabelPosition=bottom;verticalAlign=top;align=center;html=1;fontSize=12;fontStyle=0;aspect=fixed;pointerEvents=1;shape=mxgraph.aws4.role;" parent="M5-uGFi3z-6Nw_OpLiqt-111" vertex="1">
          <mxGeometry x="26.43" y="179" width="54.96" height="31" as="geometry" />
        </mxCell>
        <mxCell id="M5-uGFi3z-6Nw_OpLiqt-114" value="IAM Role" style="text;html=1;align=center;verticalAlign=middle;whiteSpace=wrap;rounded=0;" parent="M5-uGFi3z-6Nw_OpLiqt-111" vertex="1">
          <mxGeometry x="26.25" y="212" width="60" height="20" as="geometry" />
        </mxCell>
        <mxCell id="M5-uGFi3z-6Nw_OpLiqt-115" value="IAM Policy" style="text;html=1;align=center;verticalAlign=middle;whiteSpace=wrap;rounded=0;" parent="M5-uGFi3z-6Nw_OpLiqt-111" vertex="1">
          <mxGeometry x="30.250000000000007" y="333" width="60" height="20" as="geometry" />
        </mxCell>
        <mxCell id="M5-uGFi3z-6Nw_OpLiqt-116" value="" style="sketch=0;outlineConnect=0;fontColor=#232F3E;gradientColor=none;fillColor=#7AA116;strokeColor=none;dashed=0;verticalLabelPosition=bottom;verticalAlign=top;align=center;html=1;fontSize=12;fontStyle=0;aspect=fixed;pointerEvents=1;shape=mxgraph.aws4.policy;" parent="M5-uGFi3z-6Nw_OpLiqt-111" vertex="1">
          <mxGeometry x="35.43000000000001" y="278" width="60.54" height="52" as="geometry" />
        </mxCell>
        <mxCell id="M5-uGFi3z-6Nw_OpLiqt-117" value="" style="sketch=0;points=[[0,0,0],[0.25,0,0],[0.5,0,0],[0.75,0,0],[1,0,0],[0,1,0],[0.25,1,0],[0.5,1,0],[0.75,1,0],[1,1,0],[0,0.25,0],[0,0.5,0],[0,0.75,0],[1,0.25,0],[1,0.5,0],[1,0.75,0]];outlineConnect=0;fontColor=#232F3E;fillColor=#DD344C;strokeColor=#ffffff;dashed=0;verticalLabelPosition=bottom;verticalAlign=top;align=center;html=1;fontSize=12;fontStyle=0;aspect=fixed;shape=mxgraph.aws4.resourceIcon;resIcon=mxgraph.aws4.identity_and_access_management;" parent="M5-uGFi3z-6Nw_OpLiqt-111" vertex="1">
          <mxGeometry x="30.25" y="48" width="52" height="52" as="geometry" />
        </mxCell>
        <mxCell id="M5-uGFi3z-6Nw_OpLiqt-118" value="Region" style="points=[[0,0],[0.25,0],[0.5,0],[0.75,0],[1,0],[1,0.25],[1,0.5],[1,0.75],[1,1],[0.75,1],[0.5,1],[0.25,1],[0,1],[0,0.75],[0,0.5],[0,0.25]];outlineConnect=0;gradientColor=none;html=1;whiteSpace=wrap;fontSize=12;fontStyle=0;container=1;pointerEvents=0;collapsible=0;recursiveResize=0;shape=mxgraph.aws4.group;grIcon=mxgraph.aws4.group_region;strokeColor=#00A4A6;fillColor=none;verticalAlign=top;align=left;spacingLeft=30;fontColor=#147EBA;dashed=1;movable=1;resizable=1;rotatable=1;deletable=1;editable=1;locked=0;connectable=1;" parent="M5-uGFi3z-6Nw_OpLiqt-110" vertex="1">
          <mxGeometry x="150" y="180" width="690" height="430" as="geometry" />
        </mxCell>
        <mxCell id="M5-uGFi3z-6Nw_OpLiqt-119" value="VPC" style="points=[[0,0],[0.25,0],[0.5,0],[0.75,0],[1,0],[1,0.25],[1,0.5],[1,0.75],[1,1],[0.75,1],[0.5,1],[0.25,1],[0,1],[0,0.75],[0,0.5],[0,0.25]];outlineConnect=0;gradientColor=none;html=1;whiteSpace=wrap;fontSize=12;fontStyle=0;container=1;pointerEvents=0;collapsible=0;recursiveResize=0;shape=mxgraph.aws4.group;grIcon=mxgraph.aws4.group_vpc2;strokeColor=#8C4FFF;fillColor=none;verticalAlign=top;align=left;spacingLeft=30;fontColor=#AAB7B8;dashed=0;movable=1;resizable=1;rotatable=1;deletable=1;editable=1;locked=0;connectable=1;" parent="M5-uGFi3z-6Nw_OpLiqt-118" vertex="1">
          <mxGeometry x="180" y="10" width="300" height="410" as="geometry" />
        </mxCell>
        <mxCell id="M5-uGFi3z-6Nw_OpLiqt-120" value="Private subnet" style="points=[[0,0],[0.25,0],[0.5,0],[0.75,0],[1,0],[1,0.25],[1,0.5],[1,0.75],[1,1],[0.75,1],[0.5,1],[0.25,1],[0,1],[0,0.75],[0,0.5],[0,0.25]];outlineConnect=0;gradientColor=none;html=1;whiteSpace=wrap;fontSize=12;fontStyle=0;container=1;pointerEvents=0;collapsible=0;recursiveResize=0;shape=mxgraph.aws4.group;grIcon=mxgraph.aws4.group_security_group;grStroke=0;strokeColor=#00A4A6;fillColor=#E6F6F7;verticalAlign=top;align=left;spacingLeft=30;fontColor=#147EBA;dashed=0;movable=1;resizable=1;rotatable=1;deletable=1;editable=1;locked=0;connectable=1;" parent="M5-uGFi3z-6Nw_OpLiqt-119" vertex="1">
          <mxGeometry x="156" y="69.5" width="122" height="162" as="geometry" />
        </mxCell>
        <mxCell id="M5-uGFi3z-6Nw_OpLiqt-121" value="Amazon&lt;div&gt;EC2&lt;/div&gt;" style="text;html=1;align=center;verticalAlign=middle;whiteSpace=wrap;rounded=0;" parent="M5-uGFi3z-6Nw_OpLiqt-120" vertex="1">
          <mxGeometry x="29" y="114.5" width="72" height="30.5" as="geometry" />
        </mxCell>
        <mxCell id="M5-uGFi3z-6Nw_OpLiqt-122" value="" style="sketch=0;points=[[0,0,0],[0.25,0,0],[0.5,0,0],[0.75,0,0],[1,0,0],[0,1,0],[0.25,1,0],[0.5,1,0],[0.75,1,0],[1,1,0],[0,0.25,0],[0,0.5,0],[0,0.75,0],[1,0.25,0],[1,0.5,0],[1,0.75,0]];points=[[0,0,0],[0.25,0,0],[0.5,0,0],[0.75,0,0],[1,0,0],[0,1,0],[0.25,1,0],[0.5,1,0],[0.75,1,0],[1,1,0],[0,0.25,0],[0,0.5,0],[0,0.75,0],[1,0.25,0],[1,0.5,0],[1,0.75,0]];outlineConnect=0;fontColor=#232F3E;fillColor=#E7157B;strokeColor=#ffffff;dashed=0;verticalLabelPosition=bottom;verticalAlign=top;align=center;html=1;fontSize=12;fontStyle=0;aspect=fixed;shape=mxgraph.aws4.resourceIcon;resIcon=mxgraph.aws4.systems_manager;" parent="M5-uGFi3z-6Nw_OpLiqt-118" vertex="1">
          <mxGeometry x="610.75" y="230" width="46.5" height="46.5" as="geometry" />
        </mxCell>
        <mxCell id="M5-uGFi3z-6Nw_OpLiqt-123" value="AWS&lt;div&gt;Session Manager&lt;/div&gt;" style="text;html=1;align=center;verticalAlign=middle;whiteSpace=wrap;rounded=0;" parent="M5-uGFi3z-6Nw_OpLiqt-118" vertex="1">
          <mxGeometry x="580" y="278" width="110" height="32" as="geometry" />
        </mxCell>
        <mxCell id="M5-uGFi3z-6Nw_OpLiqt-124" style="rounded=0;orthogonalLoop=1;jettySize=auto;html=1;endArrow=none;startFill=0;strokeWidth=3;strokeColor=light-dark(#8b50f8, #959595);" parent="M5-uGFi3z-6Nw_OpLiqt-118" source="M5-uGFi3z-6Nw_OpLiqt-108" edge="1">
          <mxGeometry relative="1" as="geometry">
            <mxPoint x="229.75" y="515" as="sourcePoint" />
            <mxPoint x="365" y="170" as="targetPoint" />
          </mxGeometry>
        </mxCell>
        <mxCell id="M5-uGFi3z-6Nw_OpLiqt-125" style="rounded=0;orthogonalLoop=1;jettySize=auto;html=1;exitX=1;exitY=0.5;exitDx=0;exitDy=0;exitPerimeter=0;endArrow=none;startFill=0;strokeWidth=3;strokeColor=light-dark(#8b50f8, #959595);" parent="M5-uGFi3z-6Nw_OpLiqt-118" target="M5-uGFi3z-6Nw_OpLiqt-108" edge="1">
          <mxGeometry relative="1" as="geometry">
            <mxPoint x="80.25" y="297.75" as="sourcePoint" />
          </mxGeometry>
        </mxCell>
        <mxCell id="M5-uGFi3z-6Nw_OpLiqt-126" value="Amazon&lt;div&gt;Transit Gateway&lt;/div&gt;" style="text;html=1;align=center;verticalAlign=middle;whiteSpace=wrap;rounded=0;" parent="M5-uGFi3z-6Nw_OpLiqt-118" vertex="1">
          <mxGeometry y="324.5" width="110" height="39" as="geometry" />
        </mxCell>
        <mxCell id="M5-uGFi3z-6Nw_OpLiqt-127" style="edgeStyle=orthogonalEdgeStyle;rounded=0;orthogonalLoop=1;jettySize=auto;html=1;endArrow=none;startFill=0;startArrow=none;strokeWidth=3;strokeColor=light-dark(#8b50f8, #959595);entryX=0.5;entryY=1;entryDx=0;entryDy=0;entryPerimeter=0;" parent="M5-uGFi3z-6Nw_OpLiqt-118" edge="1">
          <mxGeometry relative="1" as="geometry">
            <mxPoint x="55" y="330.5" as="sourcePoint" />
            <mxPoint x="55" y="323" as="targetPoint" />
          </mxGeometry>
        </mxCell>
        <mxCell id="M5-uGFi3z-6Nw_OpLiqt-128" value="" style="outlineConnect=0;dashed=0;verticalLabelPosition=bottom;verticalAlign=top;align=center;html=1;shape=mxgraph.aws3.internet_gateway;fillColor=#F58534;gradientColor=none;" parent="M5-uGFi3z-6Nw_OpLiqt-118" vertex="1">
          <mxGeometry x="30.5" y="270" width="49" height="53" as="geometry" />
        </mxCell>
        <mxCell id="M5-uGFi3z-6Nw_OpLiqt-129" value="異常検知" style="text;html=1;align=center;verticalAlign=middle;whiteSpace=wrap;rounded=1;fillColor=#FFFFFF;gradientColor=none;strokeColor=light-dark(#e42379, #295a0d);strokeWidth=3;fontColor=light-dark(#e42379, #295a0d);fontStyle=1;shadow=1;shadowBlur=0;" parent="M5-uGFi3z-6Nw_OpLiqt-118" vertex="1">
          <mxGeometry x="460.00000000000006" y="121" width="80" height="20" as="geometry" />
        </mxCell>
        <mxCell id="M5-uGFi3z-6Nw_OpLiqt-130" value="バックアップ" style="text;html=1;align=center;verticalAlign=middle;whiteSpace=wrap;rounded=1;fillColor=default;gradientColor=none;strokeColor=light-dark(#7ba132, #295a0d);strokeWidth=3;fontColor=light-dark(#7ba132, #295a0d);fontStyle=1;shadow=1;shadowBlur=0;" parent="M5-uGFi3z-6Nw_OpLiqt-118" vertex="1">
          <mxGeometry x="460" y="150" width="80" height="20" as="geometry" />
        </mxCell>
        <mxCell id="M5-uGFi3z-6Nw_OpLiqt-131" value="メンテナンス" style="text;html=1;align=center;verticalAlign=middle;whiteSpace=wrap;rounded=1;fillColor=#FFFFFF;gradientColor=none;strokeColor=light-dark(#FF8000,#295A0D);strokeWidth=3;fontColor=light-dark(#FF8000,#295A0D);fontStyle=1;shadow=1;shadowBlur=0;" parent="M5-uGFi3z-6Nw_OpLiqt-118" vertex="1">
          <mxGeometry x="504" y="213" width="80" height="20" as="geometry" />
        </mxCell>
        <mxCell id="M5-uGFi3z-6Nw_OpLiqt-132" value="" style="sketch=0;points=[[0,0,0],[0.25,0,0],[0.5,0,0],[0.75,0,0],[1,0,0],[0,1,0],[0.25,1,0],[0.5,1,0],[0.75,1,0],[1,1,0],[0,0.25,0],[0,0.5,0],[0,0.75,0],[1,0.25,0],[1,0.5,0],[1,0.75,0]];outlineConnect=0;fontColor=#232F3E;fillColor=#DD344C;strokeColor=#ffffff;dashed=0;verticalLabelPosition=bottom;verticalAlign=top;align=center;html=1;fontSize=12;fontStyle=0;aspect=fixed;shape=mxgraph.aws4.resourceIcon;resIcon=mxgraph.aws4.network_firewall;" parent="M5-uGFi3z-6Nw_OpLiqt-118" vertex="1">
          <mxGeometry x="40" y="88" width="53" height="53" as="geometry" />
        </mxCell>
        <mxCell id="M5-uGFi3z-6Nw_OpLiqt-133" value="Amazon&lt;div&gt;S3&lt;/div&gt;" style="text;html=1;align=center;verticalAlign=middle;whiteSpace=wrap;rounded=0;" parent="M5-uGFi3z-6Nw_OpLiqt-110" vertex="1">
          <mxGeometry x="740" y="359" width="90" height="32" as="geometry" />
        </mxCell>
        <mxCell id="M5-uGFi3z-6Nw_OpLiqt-134" value="" style="sketch=0;points=[[0,0,0],[0.25,0,0],[0.5,0,0],[0.75,0,0],[1,0,0],[0,1,0],[0.25,1,0],[0.5,1,0],[0.75,1,0],[1,1,0],[0,0.25,0],[0,0.5,0],[0,0.75,0],[1,0.25,0],[1,0.5,0],[1,0.75,0]];outlineConnect=0;fontColor=#232F3E;fillColor=#7AA116;strokeColor=#ffffff;dashed=0;verticalLabelPosition=bottom;verticalAlign=top;align=center;html=1;fontSize=12;fontStyle=0;aspect=fixed;shape=mxgraph.aws4.resourceIcon;resIcon=mxgraph.aws4.s3;" parent="M5-uGFi3z-6Nw_OpLiqt-110" vertex="1">
          <mxGeometry x="761" y="308" width="50" height="50" as="geometry" />
        </mxCell>
        <mxCell id="M5-uGFi3z-6Nw_OpLiqt-135" value="管理" style="points=[[0,0],[0.25,0],[0.5,0],[0.75,0],[1,0],[1,0.25],[1,0.5],[1,0.75],[1,1],[0.75,1],[0.5,1],[0.25,1],[0,1],[0,0.75],[0,0.5],[0,0.25]];outlineConnect=0;gradientColor=none;html=1;whiteSpace=wrap;fontSize=12;fontStyle=0;container=1;pointerEvents=0;collapsible=0;recursiveResize=0;shape=mxgraph.aws4.group;grIcon=mxgraph.aws4.group_account;strokeColor=#CD2264;fillColor=none;verticalAlign=top;align=left;spacingLeft=30;fontColor=#CD2264;dashed=0;" parent="M5-uGFi3z-6Nw_OpLiqt-110" vertex="1">
          <mxGeometry x="150" y="33" width="690" height="137" as="geometry" />
        </mxCell>
        <mxCell id="M5-uGFi3z-6Nw_OpLiqt-136" value="" style="sketch=0;points=[[0,0,0],[0.25,0,0],[0.5,0,0],[0.75,0,0],[1,0,0],[0,1,0],[0.25,1,0],[0.5,1,0],[0.75,1,0],[1,1,0],[0,0.25,0],[0,0.5,0],[0,0.75,0],[1,0.25,0],[1,0.5,0],[1,0.75,0]];points=[[0,0,0],[0.25,0,0],[0.5,0,0],[0.75,0,0],[1,0,0],[0,1,0],[0.25,1,0],[0.5,1,0],[0.75,1,0],[1,1,0],[0,0.25,0],[0,0.5,0],[0,0.75,0],[1,0.25,0],[1,0.5,0],[1,0.75,0]];outlineConnect=0;fontColor=#232F3E;fillColor=#E7157B;strokeColor=#ffffff;dashed=0;verticalLabelPosition=bottom;verticalAlign=top;align=center;html=1;fontSize=12;fontStyle=0;aspect=fixed;shape=mxgraph.aws4.resourceIcon;resIcon=mxgraph.aws4.cloudtrail;" parent="M5-uGFi3z-6Nw_OpLiqt-135" vertex="1">
          <mxGeometry x="28.75" y="47" width="52.5" height="52.5" as="geometry" />
        </mxCell>
        <mxCell id="M5-uGFi3z-6Nw_OpLiqt-137" value="AWS&lt;div&gt;CloudTrail&lt;/div&gt;" style="text;html=1;align=center;verticalAlign=middle;whiteSpace=wrap;rounded=0;" parent="M5-uGFi3z-6Nw_OpLiqt-135" vertex="1">
          <mxGeometry x="10" y="101.5" width="90" height="30.5" as="geometry" />
        </mxCell>
        <mxCell id="M5-uGFi3z-6Nw_OpLiqt-138" value="" style="sketch=0;points=[[0,0,0],[0.25,0,0],[0.5,0,0],[0.75,0,0],[1,0,0],[0,1,0],[0.25,1,0],[0.5,1,0],[0.75,1,0],[1,1,0],[0,0.25,0],[0,0.5,0],[0,0.75,0],[1,0.25,0],[1,0.5,0],[1,0.75,0]];outlineConnect=0;fontColor=#232F3E;fillColor=#E7157B;strokeColor=#ffffff;dashed=0;verticalLabelPosition=bottom;verticalAlign=top;align=center;html=1;fontSize=12;fontStyle=0;aspect=fixed;shape=mxgraph.aws4.resourceIcon;resIcon=mxgraph.aws4.eventbridge;" parent="M5-uGFi3z-6Nw_OpLiqt-135" vertex="1">
          <mxGeometry x="269.25" y="47" width="51.5" height="51.5" as="geometry" />
        </mxCell>
        <mxCell id="M5-uGFi3z-6Nw_OpLiqt-139" value="&lt;div&gt;Amazon&lt;/div&gt;EventBridge" style="text;html=1;align=center;verticalAlign=middle;whiteSpace=wrap;rounded=0;" parent="M5-uGFi3z-6Nw_OpLiqt-135" vertex="1">
          <mxGeometry x="250" y="100.5" width="90" height="31.5" as="geometry" />
        </mxCell>
        <mxCell id="M5-uGFi3z-6Nw_OpLiqt-140" value="" style="sketch=0;outlineConnect=0;fontColor=#232F3E;gradientColor=none;fillColor=#E7157B;strokeColor=none;dashed=0;verticalLabelPosition=bottom;verticalAlign=top;align=center;html=1;fontSize=12;fontStyle=0;aspect=fixed;pointerEvents=1;shape=mxgraph.aws4.stack;" parent="M5-uGFi3z-6Nw_OpLiqt-135" vertex="1">
          <mxGeometry x="448.63" y="47" width="53.37" height="52" as="geometry" />
        </mxCell>
        <mxCell id="M5-uGFi3z-6Nw_OpLiqt-141" value="&lt;div&gt;Stack&lt;/div&gt;" style="text;html=1;align=center;verticalAlign=middle;whiteSpace=wrap;rounded=0;" parent="M5-uGFi3z-6Nw_OpLiqt-135" vertex="1">
          <mxGeometry x="432" y="98.5" width="90" height="18.5" as="geometry" />
        </mxCell>
        <mxCell id="M5-uGFi3z-6Nw_OpLiqt-142" value="" style="sketch=0;points=[[0,0,0],[0.25,0,0],[0.5,0,0],[0.75,0,0],[1,0,0],[0,1,0],[0.25,1,0],[0.5,1,0],[0.75,1,0],[1,1,0],[0,0.25,0],[0,0.5,0],[0,0.75,0],[1,0.25,0],[1,0.5,0],[1,0.75,0]];points=[[0,0,0],[0.25,0,0],[0.5,0,0],[0.75,0,0],[1,0,0],[0,1,0],[0.25,1,0],[0.5,1,0],[0.75,1,0],[1,1,0],[0,0.25,0],[0,0.5,0],[0,0.75,0],[1,0.25,0],[1,0.5,0],[1,0.75,0]];outlineConnect=0;fontColor=#232F3E;fillColor=#E7157B;strokeColor=#ffffff;dashed=0;verticalLabelPosition=bottom;verticalAlign=top;align=center;html=1;fontSize=12;fontStyle=0;aspect=fixed;shape=mxgraph.aws4.resourceIcon;resIcon=mxgraph.aws4.cloudformation;" parent="M5-uGFi3z-6Nw_OpLiqt-135" vertex="1">
          <mxGeometry x="360" y="47" width="51" height="51" as="geometry" />
        </mxCell>
        <mxCell id="M5-uGFi3z-6Nw_OpLiqt-143" value="&lt;div&gt;AWS&lt;/div&gt;&lt;div&gt;CloudFormation&lt;/div&gt;" style="text;html=1;align=center;verticalAlign=middle;whiteSpace=wrap;rounded=0;" parent="M5-uGFi3z-6Nw_OpLiqt-135" vertex="1">
          <mxGeometry x="340" y="100.5" width="90" height="31.5" as="geometry" />
        </mxCell>
        <mxCell id="M5-uGFi3z-6Nw_OpLiqt-144" value="" style="sketch=0;points=[[0,0,0],[0.25,0,0],[0.5,0,0],[0.75,0,0],[1,0,0],[0,1,0],[0.25,1,0],[0.5,1,0],[0.75,1,0],[1,1,0],[0,0.25,0],[0,0.5,0],[0,0.75,0],[1,0.25,0],[1,0.5,0],[1,0.75,0]];outlineConnect=0;fontColor=#232F3E;fillColor=#DD344C;strokeColor=#ffffff;dashed=0;verticalLabelPosition=bottom;verticalAlign=top;align=center;html=1;fontSize=12;fontStyle=0;aspect=fixed;shape=mxgraph.aws4.resourceIcon;resIcon=mxgraph.aws4.guardduty;" parent="M5-uGFi3z-6Nw_OpLiqt-135" vertex="1">
          <mxGeometry x="110" y="47" width="52" height="52" as="geometry" />
        </mxCell>
        <mxCell id="M5-uGFi3z-6Nw_OpLiqt-145" value="&lt;div&gt;Amazon&lt;/div&gt;GuardDuty" style="text;html=1;align=center;verticalAlign=middle;whiteSpace=wrap;rounded=0;" parent="M5-uGFi3z-6Nw_OpLiqt-135" vertex="1">
          <mxGeometry x="90" y="100.5" width="90" height="31.5" as="geometry" />
        </mxCell>
        <mxCell id="M5-uGFi3z-6Nw_OpLiqt-146" value="" style="sketch=0;points=[[0,0,0],[0.25,0,0],[0.5,0,0],[0.75,0,0],[1,0,0],[0,1,0],[0.25,1,0],[0.5,1,0],[0.75,1,0],[1,1,0],[0,0.25,0],[0,0.5,0],[0,0.75,0],[1,0.25,0],[1,0.5,0],[1,0.75,0]];outlineConnect=0;fontColor=#232F3E;fillColor=#DD344C;strokeColor=#ffffff;dashed=0;verticalLabelPosition=bottom;verticalAlign=top;align=center;html=1;fontSize=12;fontStyle=0;aspect=fixed;shape=mxgraph.aws4.resourceIcon;resIcon=mxgraph.aws4.security_hub;" parent="M5-uGFi3z-6Nw_OpLiqt-135" vertex="1">
          <mxGeometry x="190" y="47" width="51" height="51" as="geometry" />
        </mxCell>
        <mxCell id="M5-uGFi3z-6Nw_OpLiqt-147" value="&lt;div&gt;AWS&lt;/div&gt;&lt;div&gt;Security Hub&lt;/div&gt;" style="text;html=1;align=center;verticalAlign=middle;whiteSpace=wrap;rounded=0;" parent="M5-uGFi3z-6Nw_OpLiqt-135" vertex="1">
          <mxGeometry x="170" y="100.5" width="90" height="31.5" as="geometry" />
        </mxCell>
        <mxCell id="M5-uGFi3z-6Nw_OpLiqt-148" value="" style="sketch=0;points=[[0,0,0],[0.25,0,0],[0.5,0,0],[0.75,0,0],[1,0,0],[0,1,0],[0.25,1,0],[0.5,1,0],[0.75,1,0],[1,1,0],[0,0.25,0],[0,0.5,0],[0,0.75,0],[1,0.25,0],[1,0.5,0],[1,0.75,0]];points=[[0,0,0],[0.25,0,0],[0.5,0,0],[0.75,0,0],[1,0,0],[0,1,0],[0.25,1,0],[0.5,1,0],[0.75,1,0],[1,1,0],[0,0.25,0],[0,0.5,0],[0,0.75,0],[1,0.25,0],[1,0.5,0],[1,0.75,0]];outlineConnect=0;fontColor=#232F3E;fillColor=#E7157B;strokeColor=#ffffff;dashed=0;verticalLabelPosition=bottom;verticalAlign=top;align=center;html=1;fontSize=12;fontStyle=0;aspect=fixed;shape=mxgraph.aws4.resourceIcon;resIcon=mxgraph.aws4.config;" parent="M5-uGFi3z-6Nw_OpLiqt-135" vertex="1">
          <mxGeometry x="530.5" y="47" width="49" height="49" as="geometry" />
        </mxCell>
        <mxCell id="M5-uGFi3z-6Nw_OpLiqt-149" value="&lt;div&gt;AWS&lt;/div&gt;&lt;div&gt;ConfigRule&lt;/div&gt;" style="text;html=1;align=center;verticalAlign=middle;whiteSpace=wrap;rounded=0;" parent="M5-uGFi3z-6Nw_OpLiqt-135" vertex="1">
          <mxGeometry x="510" y="98.5" width="90" height="31.5" as="geometry" />
        </mxCell>
        <mxCell id="M5-uGFi3z-6Nw_OpLiqt-150" value="z" style="sketch=0;points=[[0,0,0],[0.25,0,0],[0.5,0,0],[0.75,0,0],[1,0,0],[0,1,0],[0.25,1,0],[0.5,1,0],[0.75,1,0],[1,1,0],[0,0.25,0],[0,0.5,0],[0,0.75,0],[1,0.25,0],[1,0.5,0],[1,0.75,0]];outlineConnect=0;fontColor=#232F3E;fillColor=#ED7100;strokeColor=#ffffff;dashed=0;verticalLabelPosition=bottom;verticalAlign=top;align=center;html=1;fontSize=12;fontStyle=0;aspect=fixed;shape=mxgraph.aws4.resourceIcon;resIcon=mxgraph.aws4.lambda;" parent="M5-uGFi3z-6Nw_OpLiqt-135" vertex="1">
          <mxGeometry x="608.75" y="47" width="50" height="50" as="geometry" />
        </mxCell>
        <mxCell id="M5-uGFi3z-6Nw_OpLiqt-151" value="&lt;div&gt;AWS&lt;/div&gt;&lt;div&gt;Lambda&lt;/div&gt;" style="text;html=1;align=center;verticalAlign=middle;whiteSpace=wrap;rounded=0;" parent="M5-uGFi3z-6Nw_OpLiqt-135" vertex="1">
          <mxGeometry x="590" y="98.5" width="90" height="31.5" as="geometry" />
        </mxCell>
        <mxCell id="M5-uGFi3z-6Nw_OpLiqt-152" value="" style="sketch=0;points=[[0,0,0],[0.25,0,0],[0.5,0,0],[0.75,0,0],[1,0,0],[0,1,0],[0.25,1,0],[0.5,1,0],[0.75,1,0],[1,1,0],[0,0.25,0],[0,0.5,0],[0,0.75,0],[1,0.25,0],[1,0.5,0],[1,0.75,0]];points=[[0,0,0],[0.25,0,0],[0.5,0,0],[0.75,0,0],[1,0,0],[0,1,0],[0.25,1,0],[0.5,1,0],[0.75,1,0],[1,1,0],[0,0.25,0],[0,0.5,0],[0,0.75,0],[1,0.25,0],[1,0.5,0],[1,0.75,0]];outlineConnect=0;fontColor=#232F3E;fillColor=#E7157B;strokeColor=#ffffff;dashed=0;verticalLabelPosition=bottom;verticalAlign=top;align=center;html=1;fontSize=12;fontStyle=0;aspect=fixed;shape=mxgraph.aws4.resourceIcon;resIcon=mxgraph.aws4.cloudwatch_2;" parent="M5-uGFi3z-6Nw_OpLiqt-110" vertex="1">
          <mxGeometry x="680.25" y="210" width="52" height="52" as="geometry" />
        </mxCell>
        <mxCell id="M5-uGFi3z-6Nw_OpLiqt-153" value="AWS&lt;div&gt;CloudWatch&lt;/div&gt;" style="text;html=1;align=center;verticalAlign=middle;whiteSpace=wrap;rounded=0;" parent="M5-uGFi3z-6Nw_OpLiqt-110" vertex="1">
          <mxGeometry x="661.25" y="265" width="90" height="28" as="geometry" />
        </mxCell>
        <mxCell id="M5-uGFi3z-6Nw_OpLiqt-154" value="" style="sketch=0;points=[[0,0,0],[0.25,0,0],[0.5,0,0],[0.75,0,0],[1,0,0],[0,1,0],[0.25,1,0],[0.5,1,0],[0.75,1,0],[1,1,0],[0,0.25,0],[0,0.5,0],[0,0.75,0],[1,0.25,0],[1,0.5,0],[1,0.75,0]];outlineConnect=0;fontColor=#232F3E;fillColor=#E7157B;strokeColor=#ffffff;dashed=0;verticalLabelPosition=bottom;verticalAlign=top;align=center;html=1;fontSize=12;fontStyle=0;aspect=fixed;shape=mxgraph.aws4.resourceIcon;resIcon=mxgraph.aws4.sns;" parent="M5-uGFi3z-6Nw_OpLiqt-110" vertex="1">
          <mxGeometry x="760.25" y="211" width="50" height="50" as="geometry" />
        </mxCell>
        <mxCell id="M5-uGFi3z-6Nw_OpLiqt-155" value="Amazon&lt;div&gt;SNS&lt;/div&gt;" style="text;html=1;align=center;verticalAlign=middle;whiteSpace=wrap;rounded=0;" parent="M5-uGFi3z-6Nw_OpLiqt-110" vertex="1">
          <mxGeometry x="761.25" y="263" width="49" height="27" as="geometry" />
        </mxCell>
        <mxCell id="M5-uGFi3z-6Nw_OpLiqt-156" style="rounded=0;orthogonalLoop=1;jettySize=auto;html=1;endArrow=none;startFill=0;strokeWidth=3;strokeColor=light-dark(#e42379, #00a200);exitX=1;exitY=0.5;exitDx=0;exitDy=0;exitPerimeter=0;entryX=0;entryY=0.5;entryDx=0;entryDy=0;entryPerimeter=0;" parent="M5-uGFi3z-6Nw_OpLiqt-110" source="M5-uGFi3z-6Nw_OpLiqt-152" target="M5-uGFi3z-6Nw_OpLiqt-154" edge="1">
          <mxGeometry relative="1" as="geometry">
            <mxPoint x="670" y="327" as="sourcePoint" />
            <mxPoint x="776" y="234" as="targetPoint" />
          </mxGeometry>
        </mxCell>
        <mxCell id="M5-uGFi3z-6Nw_OpLiqt-157" style="rounded=0;orthogonalLoop=1;jettySize=auto;html=1;endArrow=block;startFill=0;strokeWidth=3;strokeColor=light-dark(#e42379, #00a200);exitX=1;exitY=0.5;exitDx=0;exitDy=0;exitPerimeter=0;endFill=1;" parent="M5-uGFi3z-6Nw_OpLiqt-110" edge="1">
          <mxGeometry relative="1" as="geometry">
            <mxPoint x="809.75" y="236" as="sourcePoint" />
            <mxPoint x="886" y="237" as="targetPoint" />
          </mxGeometry>
        </mxCell>
        <mxCell id="M5-uGFi3z-6Nw_OpLiqt-158" style="rounded=0;orthogonalLoop=1;jettySize=auto;html=1;endArrow=block;startFill=0;strokeWidth=3;strokeColor=light-dark(#7ba132, #00a200);entryX=0;entryY=0.5;entryDx=0;entryDy=0;entryPerimeter=0;endFill=1;" parent="M5-uGFi3z-6Nw_OpLiqt-110" source="M5-uGFi3z-6Nw_OpLiqt-130" target="M5-uGFi3z-6Nw_OpLiqt-134" edge="1">
          <mxGeometry relative="1" as="geometry">
            <mxPoint x="579.96" y="333.5" as="sourcePoint" />
            <mxPoint x="635.96" y="334.5" as="targetPoint" />
          </mxGeometry>
        </mxCell>
        <mxCell id="M5-uGFi3z-6Nw_OpLiqt-159" value="" style="sketch=0;outlineConnect=0;fontColor=#232F3E;gradientColor=none;fillColor=#232F3D;strokeColor=none;dashed=0;verticalLabelPosition=bottom;verticalAlign=top;align=center;html=1;fontSize=12;fontStyle=0;aspect=fixed;pointerEvents=1;shape=mxgraph.aws4.users;" parent="M5-uGFi3z-6Nw_OpLiqt-105" vertex="1">
          <mxGeometry x="262" y="772" width="46" height="46" as="geometry" />
        </mxCell>
        <mxCell id="M5-uGFi3z-6Nw_OpLiqt-160" value="" style="sketch=0;outlineConnect=0;fontColor=#232F3E;gradientColor=none;fillColor=#ED7100;strokeColor=none;dashed=0;verticalLabelPosition=bottom;verticalAlign=top;align=center;html=1;fontSize=12;fontStyle=0;aspect=fixed;pointerEvents=1;shape=mxgraph.aws4.instance2;" parent="M5-uGFi3z-6Nw_OpLiqt-105" vertex="1">
          <mxGeometry x="607.0006666666666" y="477" width="48" height="48" as="geometry" />
        </mxCell>
        <mxCell id="M5-uGFi3z-6Nw_OpLiqt-161" value="Security group" style="fillColor=none;strokeColor=#DD3522;verticalAlign=top;fontStyle=0;fontColor=#DD3522;whiteSpace=wrap;html=1;" parent="M5-uGFi3z-6Nw_OpLiqt-105" vertex="1">
          <mxGeometry x="584" y="451" width="94" height="112.5" as="geometry" />
        </mxCell>
        <mxCell id="M5-uGFi3z-6Nw_OpLiqt-162" value="" style="sketch=0;points=[[0,0,0],[0.25,0,0],[0.5,0,0],[0.75,0,0],[1,0,0],[0,1,0],[0.25,1,0],[0.5,1,0],[0.75,1,0],[1,1,0],[0,0.25,0],[0,0.5,0],[0,0.75,0],[1,0.25,0],[1,0.5,0],[1,0.75,0]];outlineConnect=0;fontColor=#232F3E;fillColor=#8C4FFF;strokeColor=#ffffff;dashed=0;verticalLabelPosition=bottom;verticalAlign=top;align=center;html=1;fontSize=12;fontStyle=0;aspect=fixed;shape=mxgraph.aws4.resourceIcon;resIcon=mxgraph.aws4.direct_connect;" parent="M5-uGFi3z-6Nw_OpLiqt-105" vertex="1">
          <mxGeometry x="80" y="40" width="54" height="54" as="geometry" />
        </mxCell>
        <mxCell id="M5-uGFi3z-6Nw_OpLiqt-163" value="Direct Connect" style="text;html=1;align=center;verticalAlign=middle;whiteSpace=wrap;rounded=0;" parent="M5-uGFi3z-6Nw_OpLiqt-105" vertex="1">
          <mxGeometry x="50" y="100" width="110" height="20" as="geometry" />
        </mxCell>
        <mxCell id="M5-uGFi3z-6Nw_OpLiqt-164" style="rounded=0;orthogonalLoop=1;jettySize=auto;html=1;endArrow=none;startFill=0;startArrow=none;strokeWidth=3;strokeColor=light-dark(#8b50f8, #959595);" parent="M5-uGFi3z-6Nw_OpLiqt-105" edge="1">
          <mxGeometry relative="1" as="geometry">
            <mxPoint x="285" y="690" as="sourcePoint" />
            <mxPoint x="285" y="765" as="targetPoint" />
          </mxGeometry>
        </mxCell>
        <mxCell id="M5-uGFi3z-6Nw_OpLiqt-165" value="インシデント&lt;div&gt;通知&lt;/div&gt;" style="text;html=1;align=center;verticalAlign=middle;whiteSpace=wrap;rounded=0;" parent="M5-uGFi3z-6Nw_OpLiqt-105" vertex="1">
          <mxGeometry x="954" y="414" width="80" height="30" as="geometry" />
        </mxCell>
        <mxCell id="M5-uGFi3z-6Nw_OpLiqt-166" value="利用者" style="text;html=1;align=center;verticalAlign=middle;whiteSpace=wrap;rounded=0;" parent="M5-uGFi3z-6Nw_OpLiqt-105" vertex="1">
          <mxGeometry x="245" y="818" width="80" height="30" as="geometry" />
        </mxCell>
        <mxCell id="M5-uGFi3z-6Nw_OpLiqt-167" value="" style="shape=mxgraph.signs.tech.mail;html=1;pointerEvents=1;fillColor=#666666;strokeColor=none;verticalLabelPosition=bottom;verticalAlign=top;align=center;" parent="M5-uGFi3z-6Nw_OpLiqt-105" vertex="1">
          <mxGeometry x="967.6" y="370" width="52.8" height="40" as="geometry" />
        </mxCell>
        <mxCell id="M5-uGFi3z-6Nw_OpLiqt-168" style="rounded=0;orthogonalLoop=1;jettySize=auto;html=1;endArrow=none;startFill=0;strokeWidth=3;strokeColor=light-dark(#e42379, #00a200);" parent="M5-uGFi3z-6Nw_OpLiqt-105" source="M5-uGFi3z-6Nw_OpLiqt-129" edge="1">
          <mxGeometry relative="1" as="geometry">
            <mxPoint x="661" y="477" as="sourcePoint" />
            <mxPoint x="767" y="384" as="targetPoint" />
          </mxGeometry>
        </mxCell>
        <mxCell id="M5-uGFi3z-6Nw_OpLiqt-169" value="" style="rounded=0;orthogonalLoop=1;jettySize=auto;html=1;endArrow=none;startFill=0;strokeWidth=3;strokeColor=light-dark(#e42379, #00a200);" parent="M5-uGFi3z-6Nw_OpLiqt-105" edge="1">
          <mxGeometry relative="1" as="geometry">
            <mxPoint x="643" y="495" as="sourcePoint" />
            <mxPoint x="696" y="481.2753623188405" as="targetPoint" />
          </mxGeometry>
        </mxCell>
        <mxCell id="M5-uGFi3z-6Nw_OpLiqt-170" style="rounded=0;orthogonalLoop=1;jettySize=auto;html=1;endArrow=none;startFill=0;strokeWidth=3;strokeColor=#FF8000;" parent="M5-uGFi3z-6Nw_OpLiqt-105" edge="1">
          <mxGeometry relative="1" as="geometry">
            <mxPoint x="839" y="583" as="sourcePoint" />
            <mxPoint x="643" y="498" as="targetPoint" />
            <Array as="points" />
          </mxGeometry>
        </mxCell>
        <mxCell id="M5-uGFi3z-6Nw_OpLiqt-171" value="企業情報&lt;div&gt;照会システム&lt;/div&gt;" style="text;html=1;align=center;verticalAlign=middle;whiteSpace=wrap;rounded=1;fillColor=default;gradientColor=none;strokeColor=light-dark(#666666,#295A0D);strokeWidth=3;fontColor=light-dark(#666666,#295A0D);fontStyle=1;shadow=1;shadowBlur=0;" parent="M5-uGFi3z-6Nw_OpLiqt-105" vertex="1">
          <mxGeometry x="593" y="557" width="80" height="35" as="geometry" />
        </mxCell>
        <mxCell id="M5-uGFi3z-6Nw_OpLiqt-172" value="" style="rounded=0;orthogonalLoop=1;jettySize=auto;html=1;endArrow=none;startFill=0;strokeWidth=3;strokeColor=light-dark(#7ba132, #00a200);" parent="M5-uGFi3z-6Nw_OpLiqt-105" edge="1">
          <mxGeometry relative="1" as="geometry">
            <mxPoint x="990" y="480" as="sourcePoint" />
            <mxPoint x="1161.2396212121212" y="477" as="targetPoint" />
          </mxGeometry>
        </mxCell>
        <mxCell id="M5-uGFi3z-6Nw_OpLiqt-173" value="名称未設定レイヤ" parent="0" visible="0" />
        <mxCell id="M5-uGFi3z-6Nw_OpLiqt-174" value="Public subnet" style="points=[[0,0],[0.25,0],[0.5,0],[0.75,0],[1,0],[1,0.25],[1,0.5],[1,0.75],[1,1],[0.75,1],[0.5,1],[0.25,1],[0,1],[0,0.75],[0,0.5],[0,0.25]];outlineConnect=0;gradientColor=none;html=1;whiteSpace=wrap;fontSize=12;fontStyle=0;container=1;pointerEvents=0;collapsible=0;recursiveResize=0;shape=mxgraph.aws4.group;grIcon=mxgraph.aws4.group_security_group;grStroke=0;strokeColor=#7AA116;fillColor=#F2F6E8;verticalAlign=top;align=left;spacingLeft=30;fontColor=#248814;dashed=0;" parent="M5-uGFi3z-6Nw_OpLiqt-173" vertex="1">
          <mxGeometry x="430" y="410" width="120" height="160" as="geometry" />
        </mxCell>
        <mxCell id="M5-uGFi3z-6Nw_OpLiqt-175" value="Availability Zone" style="fillColor=none;strokeColor=#147EBA;dashed=1;verticalAlign=top;fontStyle=0;fontColor=#147EBA;whiteSpace=wrap;html=1;movable=1;resizable=1;rotatable=1;deletable=1;editable=1;locked=0;connectable=1;" parent="M5-uGFi3z-6Nw_OpLiqt-174" vertex="1">
          <mxGeometry x="-10" y="-30" width="280" height="230" as="geometry" />
        </mxCell>
        <mxCell id="M5-uGFi3z-6Nw_OpLiqt-176" value="" style="sketch=0;outlineConnect=0;fontColor=#232F3E;gradientColor=none;fillColor=#8C4FFF;strokeColor=none;dashed=0;verticalLabelPosition=bottom;verticalAlign=top;align=center;html=1;fontSize=12;fontStyle=0;aspect=fixed;pointerEvents=1;shape=mxgraph.aws4.nat_gateway;" parent="M5-uGFi3z-6Nw_OpLiqt-174" vertex="1">
          <mxGeometry x="39.5" y="65.5" width="49" height="49" as="geometry" />
        </mxCell>
        <mxCell id="M5-uGFi3z-6Nw_OpLiqt-177" value="NAT Gateway" style="text;html=1;align=center;verticalAlign=middle;whiteSpace=wrap;rounded=0;" parent="M5-uGFi3z-6Nw_OpLiqt-174" vertex="1">
          <mxGeometry x="19" y="114.5" width="90" height="20" as="geometry" />
        </mxCell>
        <mxCell id="M5-uGFi3z-6Nw_OpLiqt-178" value="AWS Cloud" style="points=[[0,0],[0.25,0],[0.5,0],[0.75,0],[1,0],[1,0.25],[1,0.5],[1,0.75],[1,1],[0.75,1],[0.5,1],[0.25,1],[0,1],[0,0.75],[0,0.5],[0,0.25]];outlineConnect=0;gradientColor=none;html=1;whiteSpace=wrap;fontSize=12;fontStyle=0;container=1;pointerEvents=0;collapsible=0;recursiveResize=0;shape=mxgraph.aws4.group;grIcon=mxgraph.aws4.group_aws_cloud_alt;strokeColor=#232F3E;fillColor=none;verticalAlign=top;align=left;spacingLeft=30;fontColor=#232F3E;dashed=0;" parent="M5-uGFi3z-6Nw_OpLiqt-173" vertex="1">
          <mxGeometry x="80" y="150" width="850" height="620" as="geometry" />
        </mxCell>
        <mxCell id="M5-uGFi3z-6Nw_OpLiqt-179" value="AWS Account" style="points=[[0,0],[0.25,0],[0.5,0],[0.75,0],[1,0],[1,0.25],[1,0.5],[1,0.75],[1,1],[0.75,1],[0.5,1],[0.25,1],[0,1],[0,0.75],[0,0.5],[0,0.25]];outlineConnect=0;gradientColor=none;html=1;whiteSpace=wrap;fontSize=12;fontStyle=0;container=1;pointerEvents=0;collapsible=0;recursiveResize=0;shape=mxgraph.aws4.group;grIcon=mxgraph.aws4.group_account;strokeColor=#CD2264;fillColor=none;verticalAlign=top;align=left;spacingLeft=30;fontColor=#CD2264;dashed=0;" parent="M5-uGFi3z-6Nw_OpLiqt-178" vertex="1">
          <mxGeometry x="20" y="32" width="110" height="538" as="geometry" />
        </mxCell>
        <mxCell id="M5-uGFi3z-6Nw_OpLiqt-180" value="IAM" style="text;html=1;align=center;verticalAlign=middle;whiteSpace=wrap;rounded=0;" parent="M5-uGFi3z-6Nw_OpLiqt-179" vertex="1">
          <mxGeometry x="25.41" y="101" width="60" height="20" as="geometry" />
        </mxCell>
        <mxCell id="M5-uGFi3z-6Nw_OpLiqt-181" value="" style="sketch=0;outlineConnect=0;fontColor=#232F3E;gradientColor=none;fillColor=#DD344C;strokeColor=none;dashed=0;verticalLabelPosition=bottom;verticalAlign=top;align=center;html=1;fontSize=12;fontStyle=0;aspect=fixed;pointerEvents=1;shape=mxgraph.aws4.role;" parent="M5-uGFi3z-6Nw_OpLiqt-179" vertex="1">
          <mxGeometry x="26.43" y="179" width="54.96" height="31" as="geometry" />
        </mxCell>
        <mxCell id="M5-uGFi3z-6Nw_OpLiqt-182" value="IAM Role" style="text;html=1;align=center;verticalAlign=middle;whiteSpace=wrap;rounded=0;" parent="M5-uGFi3z-6Nw_OpLiqt-179" vertex="1">
          <mxGeometry x="26.25" y="212" width="60" height="20" as="geometry" />
        </mxCell>
        <mxCell id="M5-uGFi3z-6Nw_OpLiqt-183" value="IAM Policy" style="text;html=1;align=center;verticalAlign=middle;whiteSpace=wrap;rounded=0;" parent="M5-uGFi3z-6Nw_OpLiqt-179" vertex="1">
          <mxGeometry x="30.250000000000007" y="333" width="60" height="20" as="geometry" />
        </mxCell>
        <mxCell id="M5-uGFi3z-6Nw_OpLiqt-184" value="" style="sketch=0;outlineConnect=0;fontColor=#232F3E;gradientColor=none;fillColor=#7AA116;strokeColor=none;dashed=0;verticalLabelPosition=bottom;verticalAlign=top;align=center;html=1;fontSize=12;fontStyle=0;aspect=fixed;pointerEvents=1;shape=mxgraph.aws4.policy;" parent="M5-uGFi3z-6Nw_OpLiqt-179" vertex="1">
          <mxGeometry x="35.43000000000001" y="278" width="60.54" height="52" as="geometry" />
        </mxCell>
        <mxCell id="M5-uGFi3z-6Nw_OpLiqt-185" value="" style="sketch=0;points=[[0,0,0],[0.25,0,0],[0.5,0,0],[0.75,0,0],[1,0,0],[0,1,0],[0.25,1,0],[0.5,1,0],[0.75,1,0],[1,1,0],[0,0.25,0],[0,0.5,0],[0,0.75,0],[1,0.25,0],[1,0.5,0],[1,0.75,0]];outlineConnect=0;fontColor=#232F3E;fillColor=#DD344C;strokeColor=#ffffff;dashed=0;verticalLabelPosition=bottom;verticalAlign=top;align=center;html=1;fontSize=12;fontStyle=0;aspect=fixed;shape=mxgraph.aws4.resourceIcon;resIcon=mxgraph.aws4.identity_and_access_management;" parent="M5-uGFi3z-6Nw_OpLiqt-179" vertex="1">
          <mxGeometry x="30.25" y="48" width="52" height="52" as="geometry" />
        </mxCell>
        <mxCell id="M5-uGFi3z-6Nw_OpLiqt-186" value="Region" style="points=[[0,0],[0.25,0],[0.5,0],[0.75,0],[1,0],[1,0.25],[1,0.5],[1,0.75],[1,1],[0.75,1],[0.5,1],[0.25,1],[0,1],[0,0.75],[0,0.5],[0,0.25]];outlineConnect=0;gradientColor=none;html=1;whiteSpace=wrap;fontSize=12;fontStyle=0;container=1;pointerEvents=0;collapsible=0;recursiveResize=0;shape=mxgraph.aws4.group;grIcon=mxgraph.aws4.group_region;strokeColor=#00A4A6;fillColor=none;verticalAlign=top;align=left;spacingLeft=30;fontColor=#147EBA;dashed=1;movable=1;resizable=1;rotatable=1;deletable=1;editable=1;locked=0;connectable=1;" parent="M5-uGFi3z-6Nw_OpLiqt-178" vertex="1">
          <mxGeometry x="150" y="180" width="690" height="430" as="geometry" />
        </mxCell>
        <mxCell id="M5-uGFi3z-6Nw_OpLiqt-187" value="VPC" style="points=[[0,0],[0.25,0],[0.5,0],[0.75,0],[1,0],[1,0.25],[1,0.5],[1,0.75],[1,1],[0.75,1],[0.5,1],[0.25,1],[0,1],[0,0.75],[0,0.5],[0,0.25]];outlineConnect=0;gradientColor=none;html=1;whiteSpace=wrap;fontSize=12;fontStyle=0;container=1;pointerEvents=0;collapsible=0;recursiveResize=0;shape=mxgraph.aws4.group;grIcon=mxgraph.aws4.group_vpc2;strokeColor=#8C4FFF;fillColor=none;verticalAlign=top;align=left;spacingLeft=30;fontColor=#AAB7B8;dashed=0;movable=1;resizable=1;rotatable=1;deletable=1;editable=1;locked=0;connectable=1;" parent="M5-uGFi3z-6Nw_OpLiqt-186" vertex="1">
          <mxGeometry x="180" y="10" width="300" height="410" as="geometry" />
        </mxCell>
        <mxCell id="M5-uGFi3z-6Nw_OpLiqt-188" value="Private subnet" style="points=[[0,0],[0.25,0],[0.5,0],[0.75,0],[1,0],[1,0.25],[1,0.5],[1,0.75],[1,1],[0.75,1],[0.5,1],[0.25,1],[0,1],[0,0.75],[0,0.5],[0,0.25]];outlineConnect=0;gradientColor=none;html=1;whiteSpace=wrap;fontSize=12;fontStyle=0;container=1;pointerEvents=0;collapsible=0;recursiveResize=0;shape=mxgraph.aws4.group;grIcon=mxgraph.aws4.group_security_group;grStroke=0;strokeColor=#00A4A6;fillColor=#E6F6F7;verticalAlign=top;align=left;spacingLeft=30;fontColor=#147EBA;dashed=0;movable=1;resizable=1;rotatable=1;deletable=1;editable=1;locked=0;connectable=1;" parent="M5-uGFi3z-6Nw_OpLiqt-187" vertex="1">
          <mxGeometry x="156" y="69.5" width="122" height="162" as="geometry" />
        </mxCell>
        <mxCell id="M5-uGFi3z-6Nw_OpLiqt-189" value="Amazon&lt;div&gt;EC2&lt;/div&gt;" style="text;html=1;align=center;verticalAlign=middle;whiteSpace=wrap;rounded=0;" parent="M5-uGFi3z-6Nw_OpLiqt-188" vertex="1">
          <mxGeometry x="29" y="114.5" width="72" height="30.5" as="geometry" />
        </mxCell>
        <mxCell id="M5-uGFi3z-6Nw_OpLiqt-190" value="" style="sketch=0;points=[[0,0,0],[0.25,0,0],[0.5,0,0],[0.75,0,0],[1,0,0],[0,1,0],[0.25,1,0],[0.5,1,0],[0.75,1,0],[1,1,0],[0,0.25,0],[0,0.5,0],[0,0.75,0],[1,0.25,0],[1,0.5,0],[1,0.75,0]];points=[[0,0,0],[0.25,0,0],[0.5,0,0],[0.75,0,0],[1,0,0],[0,1,0],[0.25,1,0],[0.5,1,0],[0.75,1,0],[1,1,0],[0,0.25,0],[0,0.5,0],[0,0.75,0],[1,0.25,0],[1,0.5,0],[1,0.75,0]];outlineConnect=0;fontColor=#232F3E;fillColor=#E7157B;strokeColor=#ffffff;dashed=0;verticalLabelPosition=bottom;verticalAlign=top;align=center;html=1;fontSize=12;fontStyle=0;aspect=fixed;shape=mxgraph.aws4.resourceIcon;resIcon=mxgraph.aws4.systems_manager;" parent="M5-uGFi3z-6Nw_OpLiqt-186" vertex="1">
          <mxGeometry x="610.75" y="230" width="46.5" height="46.5" as="geometry" />
        </mxCell>
        <mxCell id="M5-uGFi3z-6Nw_OpLiqt-191" value="AWS&lt;div&gt;Session Manager&lt;/div&gt;" style="text;html=1;align=center;verticalAlign=middle;whiteSpace=wrap;rounded=0;" parent="M5-uGFi3z-6Nw_OpLiqt-186" vertex="1">
          <mxGeometry x="580" y="278" width="110" height="32" as="geometry" />
        </mxCell>
        <mxCell id="M5-uGFi3z-6Nw_OpLiqt-192" style="rounded=0;orthogonalLoop=1;jettySize=auto;html=1;endArrow=none;startFill=0;strokeWidth=3;strokeColor=light-dark(#8b50f8, #959595);" parent="M5-uGFi3z-6Nw_OpLiqt-186" source="M5-uGFi3z-6Nw_OpLiqt-176" edge="1">
          <mxGeometry relative="1" as="geometry">
            <mxPoint x="229.75" y="515" as="sourcePoint" />
            <mxPoint x="365" y="170" as="targetPoint" />
          </mxGeometry>
        </mxCell>
        <mxCell id="M5-uGFi3z-6Nw_OpLiqt-193" style="rounded=0;orthogonalLoop=1;jettySize=auto;html=1;exitX=1;exitY=0.5;exitDx=0;exitDy=0;exitPerimeter=0;endArrow=none;startFill=0;strokeWidth=3;strokeColor=light-dark(#8b50f8, #959595);" parent="M5-uGFi3z-6Nw_OpLiqt-186" target="M5-uGFi3z-6Nw_OpLiqt-176" edge="1">
          <mxGeometry relative="1" as="geometry">
            <mxPoint x="80.25" y="297.75" as="sourcePoint" />
          </mxGeometry>
        </mxCell>
        <mxCell id="M5-uGFi3z-6Nw_OpLiqt-194" value="Amazon&lt;div&gt;Transit Gateway&lt;/div&gt;" style="text;html=1;align=center;verticalAlign=middle;whiteSpace=wrap;rounded=0;" parent="M5-uGFi3z-6Nw_OpLiqt-186" vertex="1">
          <mxGeometry y="324.5" width="110" height="39" as="geometry" />
        </mxCell>
        <mxCell id="M5-uGFi3z-6Nw_OpLiqt-195" style="edgeStyle=orthogonalEdgeStyle;rounded=0;orthogonalLoop=1;jettySize=auto;html=1;endArrow=none;startFill=0;startArrow=none;strokeWidth=3;strokeColor=light-dark(#8b50f8, #959595);entryX=0.5;entryY=1;entryDx=0;entryDy=0;entryPerimeter=0;" parent="M5-uGFi3z-6Nw_OpLiqt-186" edge="1">
          <mxGeometry relative="1" as="geometry">
            <mxPoint x="55" y="330.5" as="sourcePoint" />
            <mxPoint x="55" y="323" as="targetPoint" />
          </mxGeometry>
        </mxCell>
        <mxCell id="M5-uGFi3z-6Nw_OpLiqt-196" value="" style="outlineConnect=0;dashed=0;verticalLabelPosition=bottom;verticalAlign=top;align=center;html=1;shape=mxgraph.aws3.internet_gateway;fillColor=#F58534;gradientColor=none;" parent="M5-uGFi3z-6Nw_OpLiqt-186" vertex="1">
          <mxGeometry x="30.5" y="270" width="49" height="53" as="geometry" />
        </mxCell>
        <mxCell id="M5-uGFi3z-6Nw_OpLiqt-197" value="異常検知" style="text;html=1;align=center;verticalAlign=middle;whiteSpace=wrap;rounded=1;fillColor=#FFFFFF;gradientColor=none;strokeColor=light-dark(#e42379, #295a0d);strokeWidth=3;fontColor=light-dark(#e42379, #295a0d);fontStyle=1;shadow=1;shadowBlur=0;" parent="M5-uGFi3z-6Nw_OpLiqt-186" vertex="1">
          <mxGeometry x="460.00000000000006" y="121" width="80" height="20" as="geometry" />
        </mxCell>
        <mxCell id="M5-uGFi3z-6Nw_OpLiqt-198" value="バックアップ" style="text;html=1;align=center;verticalAlign=middle;whiteSpace=wrap;rounded=1;fillColor=default;gradientColor=none;strokeColor=light-dark(#7ba132, #295a0d);strokeWidth=3;fontColor=light-dark(#7ba132, #295a0d);fontStyle=1;shadow=1;shadowBlur=0;" parent="M5-uGFi3z-6Nw_OpLiqt-186" vertex="1">
          <mxGeometry x="460" y="150" width="80" height="20" as="geometry" />
        </mxCell>
        <mxCell id="M5-uGFi3z-6Nw_OpLiqt-199" value="メンテナンス" style="text;html=1;align=center;verticalAlign=middle;whiteSpace=wrap;rounded=1;fillColor=#FFFFFF;gradientColor=none;strokeColor=light-dark(#FF8000,#295A0D);strokeWidth=3;fontColor=light-dark(#FF8000,#295A0D);fontStyle=1;shadow=1;shadowBlur=0;" parent="M5-uGFi3z-6Nw_OpLiqt-186" vertex="1">
          <mxGeometry x="504" y="213" width="80" height="20" as="geometry" />
        </mxCell>
        <mxCell id="M5-uGFi3z-6Nw_OpLiqt-200" value="" style="sketch=0;points=[[0,0,0],[0.25,0,0],[0.5,0,0],[0.75,0,0],[1,0,0],[0,1,0],[0.25,1,0],[0.5,1,0],[0.75,1,0],[1,1,0],[0,0.25,0],[0,0.5,0],[0,0.75,0],[1,0.25,0],[1,0.5,0],[1,0.75,0]];outlineConnect=0;fontColor=#232F3E;fillColor=#DD344C;strokeColor=#ffffff;dashed=0;verticalLabelPosition=bottom;verticalAlign=top;align=center;html=1;fontSize=12;fontStyle=0;aspect=fixed;shape=mxgraph.aws4.resourceIcon;resIcon=mxgraph.aws4.network_firewall;" parent="M5-uGFi3z-6Nw_OpLiqt-186" vertex="1">
          <mxGeometry x="40" y="88" width="53" height="53" as="geometry" />
        </mxCell>
        <mxCell id="M5-uGFi3z-6Nw_OpLiqt-201" value="Amazon&lt;div&gt;S3&lt;/div&gt;" style="text;html=1;align=center;verticalAlign=middle;whiteSpace=wrap;rounded=0;" parent="M5-uGFi3z-6Nw_OpLiqt-178" vertex="1">
          <mxGeometry x="740" y="359" width="90" height="32" as="geometry" />
        </mxCell>
        <mxCell id="M5-uGFi3z-6Nw_OpLiqt-202" value="" style="sketch=0;points=[[0,0,0],[0.25,0,0],[0.5,0,0],[0.75,0,0],[1,0,0],[0,1,0],[0.25,1,0],[0.5,1,0],[0.75,1,0],[1,1,0],[0,0.25,0],[0,0.5,0],[0,0.75,0],[1,0.25,0],[1,0.5,0],[1,0.75,0]];outlineConnect=0;fontColor=#232F3E;fillColor=#7AA116;strokeColor=#ffffff;dashed=0;verticalLabelPosition=bottom;verticalAlign=top;align=center;html=1;fontSize=12;fontStyle=0;aspect=fixed;shape=mxgraph.aws4.resourceIcon;resIcon=mxgraph.aws4.s3;" parent="M5-uGFi3z-6Nw_OpLiqt-178" vertex="1">
          <mxGeometry x="761" y="308" width="50" height="50" as="geometry" />
        </mxCell>
        <mxCell id="M5-uGFi3z-6Nw_OpLiqt-203" value="管理" style="points=[[0,0],[0.25,0],[0.5,0],[0.75,0],[1,0],[1,0.25],[1,0.5],[1,0.75],[1,1],[0.75,1],[0.5,1],[0.25,1],[0,1],[0,0.75],[0,0.5],[0,0.25]];outlineConnect=0;gradientColor=none;html=1;whiteSpace=wrap;fontSize=12;fontStyle=0;container=1;pointerEvents=0;collapsible=0;recursiveResize=0;shape=mxgraph.aws4.group;grIcon=mxgraph.aws4.group_account;strokeColor=#CD2264;fillColor=none;verticalAlign=top;align=left;spacingLeft=30;fontColor=#CD2264;dashed=0;" parent="M5-uGFi3z-6Nw_OpLiqt-178" vertex="1">
          <mxGeometry x="150" y="33" width="690" height="137" as="geometry" />
        </mxCell>
        <mxCell id="M5-uGFi3z-6Nw_OpLiqt-204" value="" style="sketch=0;points=[[0,0,0],[0.25,0,0],[0.5,0,0],[0.75,0,0],[1,0,0],[0,1,0],[0.25,1,0],[0.5,1,0],[0.75,1,0],[1,1,0],[0,0.25,0],[0,0.5,0],[0,0.75,0],[1,0.25,0],[1,0.5,0],[1,0.75,0]];points=[[0,0,0],[0.25,0,0],[0.5,0,0],[0.75,0,0],[1,0,0],[0,1,0],[0.25,1,0],[0.5,1,0],[0.75,1,0],[1,1,0],[0,0.25,0],[0,0.5,0],[0,0.75,0],[1,0.25,0],[1,0.5,0],[1,0.75,0]];outlineConnect=0;fontColor=#232F3E;fillColor=#E7157B;strokeColor=#ffffff;dashed=0;verticalLabelPosition=bottom;verticalAlign=top;align=center;html=1;fontSize=12;fontStyle=0;aspect=fixed;shape=mxgraph.aws4.resourceIcon;resIcon=mxgraph.aws4.cloudtrail;" parent="M5-uGFi3z-6Nw_OpLiqt-203" vertex="1">
          <mxGeometry x="28.75" y="47" width="52.5" height="52.5" as="geometry" />
        </mxCell>
        <mxCell id="M5-uGFi3z-6Nw_OpLiqt-205" value="AWS&lt;div&gt;CloudTrail&lt;/div&gt;" style="text;html=1;align=center;verticalAlign=middle;whiteSpace=wrap;rounded=0;" parent="M5-uGFi3z-6Nw_OpLiqt-203" vertex="1">
          <mxGeometry x="10" y="101.5" width="90" height="30.5" as="geometry" />
        </mxCell>
        <mxCell id="M5-uGFi3z-6Nw_OpLiqt-206" value="" style="sketch=0;points=[[0,0,0],[0.25,0,0],[0.5,0,0],[0.75,0,0],[1,0,0],[0,1,0],[0.25,1,0],[0.5,1,0],[0.75,1,0],[1,1,0],[0,0.25,0],[0,0.5,0],[0,0.75,0],[1,0.25,0],[1,0.5,0],[1,0.75,0]];outlineConnect=0;fontColor=#232F3E;fillColor=#E7157B;strokeColor=#ffffff;dashed=0;verticalLabelPosition=bottom;verticalAlign=top;align=center;html=1;fontSize=12;fontStyle=0;aspect=fixed;shape=mxgraph.aws4.resourceIcon;resIcon=mxgraph.aws4.eventbridge;" parent="M5-uGFi3z-6Nw_OpLiqt-203" vertex="1">
          <mxGeometry x="269.25" y="47" width="51.5" height="51.5" as="geometry" />
        </mxCell>
        <mxCell id="M5-uGFi3z-6Nw_OpLiqt-207" value="&lt;div&gt;Amazon&lt;/div&gt;EventBridge" style="text;html=1;align=center;verticalAlign=middle;whiteSpace=wrap;rounded=0;" parent="M5-uGFi3z-6Nw_OpLiqt-203" vertex="1">
          <mxGeometry x="250" y="100.5" width="90" height="31.5" as="geometry" />
        </mxCell>
        <mxCell id="M5-uGFi3z-6Nw_OpLiqt-208" value="" style="sketch=0;outlineConnect=0;fontColor=#232F3E;gradientColor=none;fillColor=#E7157B;strokeColor=none;dashed=0;verticalLabelPosition=bottom;verticalAlign=top;align=center;html=1;fontSize=12;fontStyle=0;aspect=fixed;pointerEvents=1;shape=mxgraph.aws4.stack;" parent="M5-uGFi3z-6Nw_OpLiqt-203" vertex="1">
          <mxGeometry x="448.63" y="47" width="53.37" height="52" as="geometry" />
        </mxCell>
        <mxCell id="M5-uGFi3z-6Nw_OpLiqt-209" value="&lt;div&gt;Stack&lt;/div&gt;" style="text;html=1;align=center;verticalAlign=middle;whiteSpace=wrap;rounded=0;" parent="M5-uGFi3z-6Nw_OpLiqt-203" vertex="1">
          <mxGeometry x="432" y="98.5" width="90" height="18.5" as="geometry" />
        </mxCell>
        <mxCell id="M5-uGFi3z-6Nw_OpLiqt-210" value="" style="sketch=0;points=[[0,0,0],[0.25,0,0],[0.5,0,0],[0.75,0,0],[1,0,0],[0,1,0],[0.25,1,0],[0.5,1,0],[0.75,1,0],[1,1,0],[0,0.25,0],[0,0.5,0],[0,0.75,0],[1,0.25,0],[1,0.5,0],[1,0.75,0]];points=[[0,0,0],[0.25,0,0],[0.5,0,0],[0.75,0,0],[1,0,0],[0,1,0],[0.25,1,0],[0.5,1,0],[0.75,1,0],[1,1,0],[0,0.25,0],[0,0.5,0],[0,0.75,0],[1,0.25,0],[1,0.5,0],[1,0.75,0]];outlineConnect=0;fontColor=#232F3E;fillColor=#E7157B;strokeColor=#ffffff;dashed=0;verticalLabelPosition=bottom;verticalAlign=top;align=center;html=1;fontSize=12;fontStyle=0;aspect=fixed;shape=mxgraph.aws4.resourceIcon;resIcon=mxgraph.aws4.cloudformation;" parent="M5-uGFi3z-6Nw_OpLiqt-203" vertex="1">
          <mxGeometry x="360" y="47" width="51" height="51" as="geometry" />
        </mxCell>
        <mxCell id="M5-uGFi3z-6Nw_OpLiqt-211" value="&lt;div&gt;AWS&lt;/div&gt;&lt;div&gt;CloudFormation&lt;/div&gt;" style="text;html=1;align=center;verticalAlign=middle;whiteSpace=wrap;rounded=0;" parent="M5-uGFi3z-6Nw_OpLiqt-203" vertex="1">
          <mxGeometry x="340" y="100.5" width="90" height="31.5" as="geometry" />
        </mxCell>
        <mxCell id="M5-uGFi3z-6Nw_OpLiqt-212" value="" style="sketch=0;points=[[0,0,0],[0.25,0,0],[0.5,0,0],[0.75,0,0],[1,0,0],[0,1,0],[0.25,1,0],[0.5,1,0],[0.75,1,0],[1,1,0],[0,0.25,0],[0,0.5,0],[0,0.75,0],[1,0.25,0],[1,0.5,0],[1,0.75,0]];outlineConnect=0;fontColor=#232F3E;fillColor=#DD344C;strokeColor=#ffffff;dashed=0;verticalLabelPosition=bottom;verticalAlign=top;align=center;html=1;fontSize=12;fontStyle=0;aspect=fixed;shape=mxgraph.aws4.resourceIcon;resIcon=mxgraph.aws4.guardduty;" parent="M5-uGFi3z-6Nw_OpLiqt-203" vertex="1">
          <mxGeometry x="110" y="47" width="52" height="52" as="geometry" />
        </mxCell>
        <mxCell id="M5-uGFi3z-6Nw_OpLiqt-213" value="&lt;div&gt;Amazon&lt;/div&gt;GuardDuty" style="text;html=1;align=center;verticalAlign=middle;whiteSpace=wrap;rounded=0;" parent="M5-uGFi3z-6Nw_OpLiqt-203" vertex="1">
          <mxGeometry x="90" y="100.5" width="90" height="31.5" as="geometry" />
        </mxCell>
        <mxCell id="M5-uGFi3z-6Nw_OpLiqt-214" value="" style="sketch=0;points=[[0,0,0],[0.25,0,0],[0.5,0,0],[0.75,0,0],[1,0,0],[0,1,0],[0.25,1,0],[0.5,1,0],[0.75,1,0],[1,1,0],[0,0.25,0],[0,0.5,0],[0,0.75,0],[1,0.25,0],[1,0.5,0],[1,0.75,0]];outlineConnect=0;fontColor=#232F3E;fillColor=#DD344C;strokeColor=#ffffff;dashed=0;verticalLabelPosition=bottom;verticalAlign=top;align=center;html=1;fontSize=12;fontStyle=0;aspect=fixed;shape=mxgraph.aws4.resourceIcon;resIcon=mxgraph.aws4.security_hub;" parent="M5-uGFi3z-6Nw_OpLiqt-203" vertex="1">
          <mxGeometry x="190" y="47" width="51" height="51" as="geometry" />
        </mxCell>
        <mxCell id="M5-uGFi3z-6Nw_OpLiqt-215" value="&lt;div&gt;AWS&lt;/div&gt;&lt;div&gt;Security Hub&lt;/div&gt;" style="text;html=1;align=center;verticalAlign=middle;whiteSpace=wrap;rounded=0;" parent="M5-uGFi3z-6Nw_OpLiqt-203" vertex="1">
          <mxGeometry x="170" y="100.5" width="90" height="31.5" as="geometry" />
        </mxCell>
        <mxCell id="M5-uGFi3z-6Nw_OpLiqt-216" value="" style="sketch=0;points=[[0,0,0],[0.25,0,0],[0.5,0,0],[0.75,0,0],[1,0,0],[0,1,0],[0.25,1,0],[0.5,1,0],[0.75,1,0],[1,1,0],[0,0.25,0],[0,0.5,0],[0,0.75,0],[1,0.25,0],[1,0.5,0],[1,0.75,0]];points=[[0,0,0],[0.25,0,0],[0.5,0,0],[0.75,0,0],[1,0,0],[0,1,0],[0.25,1,0],[0.5,1,0],[0.75,1,0],[1,1,0],[0,0.25,0],[0,0.5,0],[0,0.75,0],[1,0.25,0],[1,0.5,0],[1,0.75,0]];outlineConnect=0;fontColor=#232F3E;fillColor=#E7157B;strokeColor=#ffffff;dashed=0;verticalLabelPosition=bottom;verticalAlign=top;align=center;html=1;fontSize=12;fontStyle=0;aspect=fixed;shape=mxgraph.aws4.resourceIcon;resIcon=mxgraph.aws4.config;" parent="M5-uGFi3z-6Nw_OpLiqt-203" vertex="1">
          <mxGeometry x="530.5" y="47" width="49" height="49" as="geometry" />
        </mxCell>
        <mxCell id="M5-uGFi3z-6Nw_OpLiqt-217" value="&lt;div&gt;AWS&lt;/div&gt;&lt;div&gt;ConfigRule&lt;/div&gt;" style="text;html=1;align=center;verticalAlign=middle;whiteSpace=wrap;rounded=0;" parent="M5-uGFi3z-6Nw_OpLiqt-203" vertex="1">
          <mxGeometry x="510" y="98.5" width="90" height="31.5" as="geometry" />
        </mxCell>
        <mxCell id="M5-uGFi3z-6Nw_OpLiqt-218" value="z" style="sketch=0;points=[[0,0,0],[0.25,0,0],[0.5,0,0],[0.75,0,0],[1,0,0],[0,1,0],[0.25,1,0],[0.5,1,0],[0.75,1,0],[1,1,0],[0,0.25,0],[0,0.5,0],[0,0.75,0],[1,0.25,0],[1,0.5,0],[1,0.75,0]];outlineConnect=0;fontColor=#232F3E;fillColor=#ED7100;strokeColor=#ffffff;dashed=0;verticalLabelPosition=bottom;verticalAlign=top;align=center;html=1;fontSize=12;fontStyle=0;aspect=fixed;shape=mxgraph.aws4.resourceIcon;resIcon=mxgraph.aws4.lambda;" parent="M5-uGFi3z-6Nw_OpLiqt-203" vertex="1">
          <mxGeometry x="608.75" y="47" width="50" height="50" as="geometry" />
        </mxCell>
        <mxCell id="M5-uGFi3z-6Nw_OpLiqt-219" value="&lt;div&gt;AWS&lt;/div&gt;&lt;div&gt;Lambda&lt;/div&gt;" style="text;html=1;align=center;verticalAlign=middle;whiteSpace=wrap;rounded=0;" parent="M5-uGFi3z-6Nw_OpLiqt-203" vertex="1">
          <mxGeometry x="590" y="98.5" width="90" height="31.5" as="geometry" />
        </mxCell>
        <mxCell id="M5-uGFi3z-6Nw_OpLiqt-220" value="" style="sketch=0;points=[[0,0,0],[0.25,0,0],[0.5,0,0],[0.75,0,0],[1,0,0],[0,1,0],[0.25,1,0],[0.5,1,0],[0.75,1,0],[1,1,0],[0,0.25,0],[0,0.5,0],[0,0.75,0],[1,0.25,0],[1,0.5,0],[1,0.75,0]];points=[[0,0,0],[0.25,0,0],[0.5,0,0],[0.75,0,0],[1,0,0],[0,1,0],[0.25,1,0],[0.5,1,0],[0.75,1,0],[1,1,0],[0,0.25,0],[0,0.5,0],[0,0.75,0],[1,0.25,0],[1,0.5,0],[1,0.75,0]];outlineConnect=0;fontColor=#232F3E;fillColor=#E7157B;strokeColor=#ffffff;dashed=0;verticalLabelPosition=bottom;verticalAlign=top;align=center;html=1;fontSize=12;fontStyle=0;aspect=fixed;shape=mxgraph.aws4.resourceIcon;resIcon=mxgraph.aws4.cloudwatch_2;" parent="M5-uGFi3z-6Nw_OpLiqt-178" vertex="1">
          <mxGeometry x="680.25" y="210" width="52" height="52" as="geometry" />
        </mxCell>
        <mxCell id="M5-uGFi3z-6Nw_OpLiqt-221" value="AWS&lt;div&gt;CloudWatch&lt;/div&gt;" style="text;html=1;align=center;verticalAlign=middle;whiteSpace=wrap;rounded=0;" parent="M5-uGFi3z-6Nw_OpLiqt-178" vertex="1">
          <mxGeometry x="661.25" y="265" width="90" height="28" as="geometry" />
        </mxCell>
        <mxCell id="M5-uGFi3z-6Nw_OpLiqt-222" value="" style="sketch=0;points=[[0,0,0],[0.25,0,0],[0.5,0,0],[0.75,0,0],[1,0,0],[0,1,0],[0.25,1,0],[0.5,1,0],[0.75,1,0],[1,1,0],[0,0.25,0],[0,0.5,0],[0,0.75,0],[1,0.25,0],[1,0.5,0],[1,0.75,0]];outlineConnect=0;fontColor=#232F3E;fillColor=#E7157B;strokeColor=#ffffff;dashed=0;verticalLabelPosition=bottom;verticalAlign=top;align=center;html=1;fontSize=12;fontStyle=0;aspect=fixed;shape=mxgraph.aws4.resourceIcon;resIcon=mxgraph.aws4.sns;" parent="M5-uGFi3z-6Nw_OpLiqt-178" vertex="1">
          <mxGeometry x="760.25" y="211" width="50" height="50" as="geometry" />
        </mxCell>
        <mxCell id="M5-uGFi3z-6Nw_OpLiqt-223" value="Amazon&lt;div&gt;SNS&lt;/div&gt;" style="text;html=1;align=center;verticalAlign=middle;whiteSpace=wrap;rounded=0;" parent="M5-uGFi3z-6Nw_OpLiqt-178" vertex="1">
          <mxGeometry x="761.25" y="263" width="49" height="27" as="geometry" />
        </mxCell>
        <mxCell id="M5-uGFi3z-6Nw_OpLiqt-224" style="rounded=0;orthogonalLoop=1;jettySize=auto;html=1;endArrow=none;startFill=0;strokeWidth=3;strokeColor=light-dark(#e42379, #00a200);exitX=1;exitY=0.5;exitDx=0;exitDy=0;exitPerimeter=0;entryX=0;entryY=0.5;entryDx=0;entryDy=0;entryPerimeter=0;" parent="M5-uGFi3z-6Nw_OpLiqt-178" source="M5-uGFi3z-6Nw_OpLiqt-220" target="M5-uGFi3z-6Nw_OpLiqt-222" edge="1">
          <mxGeometry relative="1" as="geometry">
            <mxPoint x="670" y="327" as="sourcePoint" />
            <mxPoint x="776" y="234" as="targetPoint" />
          </mxGeometry>
        </mxCell>
        <mxCell id="M5-uGFi3z-6Nw_OpLiqt-225" style="rounded=0;orthogonalLoop=1;jettySize=auto;html=1;endArrow=block;startFill=0;strokeWidth=3;strokeColor=light-dark(#e42379, #00a200);exitX=1;exitY=0.5;exitDx=0;exitDy=0;exitPerimeter=0;endFill=1;" parent="M5-uGFi3z-6Nw_OpLiqt-178" edge="1">
          <mxGeometry relative="1" as="geometry">
            <mxPoint x="809.75" y="236" as="sourcePoint" />
            <mxPoint x="886" y="237" as="targetPoint" />
          </mxGeometry>
        </mxCell>
        <mxCell id="M5-uGFi3z-6Nw_OpLiqt-226" style="rounded=0;orthogonalLoop=1;jettySize=auto;html=1;endArrow=block;startFill=0;strokeWidth=3;strokeColor=light-dark(#7ba132, #00a200);entryX=0;entryY=0.5;entryDx=0;entryDy=0;entryPerimeter=0;endFill=1;" parent="M5-uGFi3z-6Nw_OpLiqt-178" source="M5-uGFi3z-6Nw_OpLiqt-198" target="M5-uGFi3z-6Nw_OpLiqt-202" edge="1">
          <mxGeometry relative="1" as="geometry">
            <mxPoint x="579.96" y="333.5" as="sourcePoint" />
            <mxPoint x="635.96" y="334.5" as="targetPoint" />
          </mxGeometry>
        </mxCell>
        <mxCell id="M5-uGFi3z-6Nw_OpLiqt-227" value="" style="sketch=0;outlineConnect=0;fontColor=#232F3E;gradientColor=none;fillColor=#232F3D;strokeColor=none;dashed=0;verticalLabelPosition=bottom;verticalAlign=top;align=center;html=1;fontSize=12;fontStyle=0;aspect=fixed;pointerEvents=1;shape=mxgraph.aws4.users;" parent="M5-uGFi3z-6Nw_OpLiqt-173" vertex="1">
          <mxGeometry x="262" y="772" width="46" height="46" as="geometry" />
        </mxCell>
        <mxCell id="M5-uGFi3z-6Nw_OpLiqt-228" value="" style="sketch=0;outlineConnect=0;fontColor=#232F3E;gradientColor=none;fillColor=#ED7100;strokeColor=none;dashed=0;verticalLabelPosition=bottom;verticalAlign=top;align=center;html=1;fontSize=12;fontStyle=0;aspect=fixed;pointerEvents=1;shape=mxgraph.aws4.instance2;" parent="M5-uGFi3z-6Nw_OpLiqt-173" vertex="1">
          <mxGeometry x="607.0006666666666" y="477" width="48" height="48" as="geometry" />
        </mxCell>
        <mxCell id="M5-uGFi3z-6Nw_OpLiqt-229" value="Security group" style="fillColor=none;strokeColor=#DD3522;verticalAlign=top;fontStyle=0;fontColor=#DD3522;whiteSpace=wrap;html=1;" parent="M5-uGFi3z-6Nw_OpLiqt-173" vertex="1">
          <mxGeometry x="584" y="451" width="94" height="112.5" as="geometry" />
        </mxCell>
        <mxCell id="M5-uGFi3z-6Nw_OpLiqt-230" value="" style="sketch=0;points=[[0,0,0],[0.25,0,0],[0.5,0,0],[0.75,0,0],[1,0,0],[0,1,0],[0.25,1,0],[0.5,1,0],[0.75,1,0],[1,1,0],[0,0.25,0],[0,0.5,0],[0,0.75,0],[1,0.25,0],[1,0.5,0],[1,0.75,0]];outlineConnect=0;fontColor=#232F3E;fillColor=#8C4FFF;strokeColor=#ffffff;dashed=0;verticalLabelPosition=bottom;verticalAlign=top;align=center;html=1;fontSize=12;fontStyle=0;aspect=fixed;shape=mxgraph.aws4.resourceIcon;resIcon=mxgraph.aws4.direct_connect;" parent="M5-uGFi3z-6Nw_OpLiqt-173" vertex="1">
          <mxGeometry x="80" y="40" width="54" height="54" as="geometry" />
        </mxCell>
        <mxCell id="M5-uGFi3z-6Nw_OpLiqt-231" value="Direct Connect" style="text;html=1;align=center;verticalAlign=middle;whiteSpace=wrap;rounded=0;" parent="M5-uGFi3z-6Nw_OpLiqt-173" vertex="1">
          <mxGeometry x="50" y="100" width="110" height="20" as="geometry" />
        </mxCell>
        <mxCell id="M5-uGFi3z-6Nw_OpLiqt-232" style="rounded=0;orthogonalLoop=1;jettySize=auto;html=1;endArrow=none;startFill=0;startArrow=none;strokeWidth=3;strokeColor=light-dark(#8b50f8, #959595);" parent="M5-uGFi3z-6Nw_OpLiqt-173" edge="1">
          <mxGeometry relative="1" as="geometry">
            <mxPoint x="285" y="690" as="sourcePoint" />
            <mxPoint x="285" y="765" as="targetPoint" />
          </mxGeometry>
        </mxCell>
        <mxCell id="M5-uGFi3z-6Nw_OpLiqt-233" value="インシデント&lt;div&gt;通知&lt;/div&gt;" style="text;html=1;align=center;verticalAlign=middle;whiteSpace=wrap;rounded=0;" parent="M5-uGFi3z-6Nw_OpLiqt-173" vertex="1">
          <mxGeometry x="954" y="414" width="80" height="30" as="geometry" />
        </mxCell>
        <mxCell id="M5-uGFi3z-6Nw_OpLiqt-234" value="利用者" style="text;html=1;align=center;verticalAlign=middle;whiteSpace=wrap;rounded=0;" parent="M5-uGFi3z-6Nw_OpLiqt-173" vertex="1">
          <mxGeometry x="245" y="818" width="80" height="30" as="geometry" />
        </mxCell>
        <mxCell id="M5-uGFi3z-6Nw_OpLiqt-235" value="" style="shape=mxgraph.signs.tech.mail;html=1;pointerEvents=1;fillColor=#666666;strokeColor=none;verticalLabelPosition=bottom;verticalAlign=top;align=center;" parent="M5-uGFi3z-6Nw_OpLiqt-173" vertex="1">
          <mxGeometry x="967.6" y="370" width="52.8" height="40" as="geometry" />
        </mxCell>
        <mxCell id="M5-uGFi3z-6Nw_OpLiqt-236" style="rounded=0;orthogonalLoop=1;jettySize=auto;html=1;endArrow=none;startFill=0;strokeWidth=3;strokeColor=light-dark(#e42379, #00a200);" parent="M5-uGFi3z-6Nw_OpLiqt-173" source="M5-uGFi3z-6Nw_OpLiqt-197" edge="1">
          <mxGeometry relative="1" as="geometry">
            <mxPoint x="661" y="477" as="sourcePoint" />
            <mxPoint x="767" y="384" as="targetPoint" />
          </mxGeometry>
        </mxCell>
        <mxCell id="M5-uGFi3z-6Nw_OpLiqt-237" value="" style="rounded=0;orthogonalLoop=1;jettySize=auto;html=1;endArrow=none;startFill=0;strokeWidth=3;strokeColor=light-dark(#e42379, #00a200);" parent="M5-uGFi3z-6Nw_OpLiqt-173" edge="1">
          <mxGeometry relative="1" as="geometry">
            <mxPoint x="643" y="495" as="sourcePoint" />
            <mxPoint x="696" y="481.2753623188405" as="targetPoint" />
          </mxGeometry>
        </mxCell>
        <mxCell id="M5-uGFi3z-6Nw_OpLiqt-238" style="rounded=0;orthogonalLoop=1;jettySize=auto;html=1;endArrow=none;startFill=0;strokeWidth=3;strokeColor=#FF8000;" parent="M5-uGFi3z-6Nw_OpLiqt-173" edge="1">
          <mxGeometry relative="1" as="geometry">
            <mxPoint x="839" y="583" as="sourcePoint" />
            <mxPoint x="643" y="498" as="targetPoint" />
            <Array as="points" />
          </mxGeometry>
        </mxCell>
        <mxCell id="M5-uGFi3z-6Nw_OpLiqt-239" value="企業情報&lt;div&gt;照会システム&lt;/div&gt;" style="text;html=1;align=center;verticalAlign=middle;whiteSpace=wrap;rounded=1;fillColor=default;gradientColor=none;strokeColor=light-dark(#666666,#295A0D);strokeWidth=3;fontColor=light-dark(#666666,#295A0D);fontStyle=1;shadow=1;shadowBlur=0;" parent="M5-uGFi3z-6Nw_OpLiqt-173" vertex="1">
          <mxGeometry x="593" y="557" width="80" height="35" as="geometry" />
        </mxCell>
        <mxCell id="M5-uGFi3z-6Nw_OpLiqt-240" value="" style="rounded=0;orthogonalLoop=1;jettySize=auto;html=1;endArrow=none;startFill=0;strokeWidth=3;strokeColor=light-dark(#7ba132, #00a200);" parent="M5-uGFi3z-6Nw_OpLiqt-173" edge="1">
          <mxGeometry relative="1" as="geometry">
            <mxPoint x="990" y="480" as="sourcePoint" />
            <mxPoint x="1161.2396212121212" y="477" as="targetPoint" />
          </mxGeometry>
        </mxCell>
      </root>
    </mxGraphModel>
  </diagram>
</mxfile>
